<svg xmlns="http://www.w3.org/2000/svg" width="36" height="35" viewBox="0 0 36 35" fill="none">
  <g clip-path="url(#clip0_2061_3049)">
    <path d="M26.8375 3.13956C27.1906 3.1396 27.5315 3.26926 27.7954 3.50394C28.0593 3.73861 28.2279 4.06199 28.2692 4.41272L28.2793 4.58142V10.3489C28.2793 10.702 28.1496 11.0429 27.915 11.3068C27.6803 11.5707 27.3569 11.7393 27.0062 11.7806L26.8375 11.7907H22.5119V13.2326H26.8375C27.0427 13.2327 27.2456 13.2766 27.4325 13.3613C27.6195 13.4461 27.7861 13.5698 27.9214 13.7242C28.0567 13.8786 28.1574 14.0601 28.2169 14.2565C28.2764 14.453 28.2933 14.6598 28.2664 14.8633L28.2375 15.0248L26.7957 20.7923C26.7241 21.077 26.5673 21.3332 26.3462 21.5264C26.1251 21.7197 25.8503 21.8408 25.5586 21.8736L25.3956 21.8837H22.5119V30.5349C22.5119 30.8881 22.3822 31.2289 22.1475 31.4928C21.9128 31.7567 21.5895 31.9254 21.2387 31.9667L21.07 31.9768H15.3026C14.9494 31.9767 14.6086 31.8471 14.3447 31.6124C14.0808 31.3777 13.9122 31.0543 13.8708 30.7036L13.8607 30.5349V21.8837H10.977C10.6239 21.8837 10.283 21.754 10.0191 21.5194C9.75517 21.2847 9.58657 20.9613 9.54525 20.6106L9.53516 20.4419V14.6744C9.5352 14.3213 9.66486 13.9804 9.89954 13.7165C10.1342 13.4526 10.4576 13.284 10.8083 13.2427L10.977 13.2326H13.8607V11.7907C13.8607 9.5524 14.7281 7.40118 16.2809 5.78902C17.8336 4.17686 19.9507 3.22926 22.1875 3.14532L22.5119 3.13956H26.8375Z" fill="white"/>
  </g>
  <defs>
    <clipPath id="clip0_2061_3049">
      <rect width="34.6047" height="34.6047" fill="white" transform="translate(0.883789 0.255814)"/>
    </clipPath>
  </defs>
</svg>