<svg width="1132" height="1133" viewBox="0 0 1132 1133" fill="none" xmlns="http://www.w3.org/2000/svg">
<path d="M407.8 719.92L377.497 790.641L404.429 785.254C425.716 780.999 447.357 778.854 469.068 778.854H663.102C684.802 778.854 706.454 780.999 727.741 785.254L754.674 790.641L724.37 719.92H672.166V696.346H721.129L722.85 685.149C735.509 602.853 734.848 519.12 721.199 437.037H483.578V413.463H723.238L754.674 319.169C715.742 334.739 674.194 342.743 632.268 342.743H499.902C457.977 342.743 416.428 334.739 377.497 319.169L408.932 413.463H448.217V437.037H410.971C397.334 519.12 396.662 602.865 409.321 685.149L411.042 696.346H625.019V719.92H407.8ZM577.872 601.239V649.199H554.298V601.239C507.8 595.428 471.791 555.836 471.791 507.758C519.869 507.758 559.461 543.766 565.272 590.265H566.899C572.709 543.766 612.301 507.758 660.38 507.758C660.38 555.836 624.371 595.428 577.872 601.239Z" fill="white"/>
<path d="M683.953 142.368C683.953 77.2695 631.184 24.5 566.085 24.5C500.987 24.5 448.217 77.2695 448.217 142.368C448.217 207.466 500.987 260.236 566.085 260.236C631.184 260.236 683.953 207.466 683.953 142.368ZM577.872 170.774V213.089H554.299V170.774C520.859 165.152 495.365 136.144 495.365 101.114C528.309 101.114 555.902 123.674 563.763 154.155H568.396C576.257 123.674 603.862 101.114 636.794 101.114C636.806 136.144 611.311 165.152 577.872 170.774Z" fill="#64903A"/>
<path d="M990.41 448.824C925.311 448.824 872.542 501.594 872.542 566.692C872.542 631.791 925.311 684.56 990.41 684.56C1055.51 684.56 1108.28 631.791 1108.28 566.692C1108.28 501.594 1055.51 448.824 990.41 448.824ZM1002.2 595.099V637.413H978.623V595.099C945.184 589.476 919.689 560.469 919.689 525.439C952.633 525.439 980.226 547.999 988.088 578.479H992.72C1000.58 547.999 1028.19 525.439 1061.12 525.439C1061.13 560.469 1035.64 589.476 1002.2 595.099Z" fill="#64903A"/>
<path d="M259.629 566.692C259.629 501.594 206.859 448.824 141.761 448.824C76.6623 448.824 23.8929 501.594 23.8929 566.692C23.8929 631.791 76.6623 684.56 141.761 684.56C206.859 684.56 259.629 631.791 259.629 566.692ZM153.548 595.099V637.413H129.974V595.099C96.5349 589.476 71.04 560.469 71.04 525.439C103.984 525.439 131.577 547.999 139.439 578.479H144.071C151.933 547.999 179.537 525.439 212.47 525.439C212.482 560.469 186.987 589.476 153.548 595.099Z" fill="#64903A"/>
<path d="M577.872 283.809H554.298V319.169H577.872V283.809Z" fill="white"/>
<path d="M365.711 554.906H283.204V578.479H365.711V554.906Z" fill="white"/>
<path d="M848.968 554.906H766.461V578.479H848.968V554.906Z" fill="white"/>
<path d="M306.777 920.295H212.483V1108.88H306.777V920.295Z" fill="white"/>
<path d="M495.367 955.656H401.073V1108.88H495.367V955.656Z" fill="white"/>
<path d="M872.543 1038.16H778.249V1108.88H872.543V1038.16Z" fill="white"/>
<path d="M683.953 991.016H589.659V1108.88H683.953V991.016Z" fill="white"/>
<path d="M928.025 888.39L911.359 905.056L949.359 943.057C832.493 939.273 665.427 925.777 486.174 885.219C391.149 863.72 296.442 836.092 204.67 803.112L196.702 825.307C289.382 858.605 385.02 886.492 480.976 908.215C661.243 948.997 829.217 962.682 947.108 966.572L900.362 1005.53L915.461 1023.64L986.181 964.709C988.727 962.576 990.259 959.499 990.401 956.176C990.554 952.875 989.305 949.646 986.959 947.312L928.025 888.39Z" fill="white"/>
</svg>
