<svg width="1133" height="1133" viewBox="0 0 1133 1133" fill="none" xmlns="http://www.w3.org/2000/svg">
<g clip-path="url(#clip0_2395_125)">
<path d="M1073.01 406.471L943.773 180.165C941.851 176.79 938.927 174.112 935.4 172.452L574.196 2.72229C569.141 0.326621 563.238 0.326621 558.146 2.72229L197.208 172.452C193.7 174.112 190.777 176.79 188.854 180.165L59.6139 406.471C56.2767 412.299 56.2944 419.464 59.6713 425.292C63.046 431.12 69.2695 434.685 75.9835 434.685H113.702V1113.6C113.702 1124.03 122.131 1132.46 132.56 1132.46H377.725V774.144C377.725 771.693 378.215 769.24 379.177 766.94C381.082 762.318 384.759 758.641 389.38 756.736C391.681 755.775 394.132 755.284 396.585 755.284H736.045C738.495 755.284 740.949 755.775 743.249 756.736C747.87 758.641 751.548 762.318 753.453 766.94C754.414 769.24 754.905 771.691 754.905 774.144V1132.46H1000.07C1010.5 1132.46 1018.93 1124.03 1018.93 1113.6V434.685H1056.65C1063.36 434.685 1069.58 431.12 1072.96 425.292C1076.33 419.464 1076.35 412.299 1073.01 406.471ZM472.02 623.273H453.162H302.29H283.432C273.003 623.273 264.574 614.844 264.574 604.414C264.574 593.985 273.003 585.556 283.432 585.556V453.545C283.432 443.116 291.861 434.687 302.29 434.687H453.162C463.591 434.687 472.02 443.116 472.02 453.545V585.556C482.449 585.556 490.878 593.985 490.878 604.414C490.878 614.844 482.449 623.273 472.02 623.273ZM622.889 321.531H509.736C499.307 321.531 490.878 313.102 490.878 302.673V264.955C490.878 223.351 524.711 189.52 566.313 189.52C607.914 189.52 641.747 223.353 641.747 264.955V302.673C641.749 313.1 633.318 321.531 622.889 321.531ZM849.195 623.273H830.337H679.466H660.608C650.178 623.273 641.749 614.844 641.749 604.414C641.749 593.985 650.178 585.556 660.608 585.556V453.545C660.608 443.116 669.037 434.687 679.466 434.687H830.337C840.766 434.687 849.195 443.116 849.195 453.545V585.556C859.625 585.556 868.054 593.985 868.054 604.414C868.056 614.844 859.625 623.273 849.195 623.273ZM1000.07 396.966H973.231L879.917 235.46C878.069 232.273 875.353 229.689 872.054 228.03L574.669 78.3648C569.369 75.6862 563.051 75.6862 557.716 78.3648L260.576 228.03C257.294 229.689 254.578 232.273 252.73 235.46L159.399 396.966H132.56H108.477L218.652 204.06L566.182 40.6109L913.978 204.06L1024.15 396.966H1000.07Z" fill="#F6FAFD"/>
<path d="M690.518 793.003H442.109L566.314 917.208L690.518 793.003Z" fill="#64903A"/>
<path d="M434.298 472.398H321.145V585.552H434.298V472.398Z" fill="#64903A"/>
<path d="M415.442 1121.41V1132.46H717.183V1121.41L566.311 970.543L415.442 1121.41Z" fill="#64903A"/>
<path d="M717.185 1068.08V819.668L592.982 943.873L717.185 1068.08Z" fill="#64903A"/>
<path d="M415.442 1068.08L539.645 943.873L415.442 819.668V1068.08Z" fill="#64903A"/>
<path d="M811.478 472.398H698.325V585.552H811.478V472.398Z" fill="#64903A"/>
<path d="M566.312 227.237C545.511 227.237 528.593 244.153 528.593 264.956V283.814H604.028V264.956C604.03 244.155 587.115 227.237 566.312 227.237Z" fill="#64903A"/>
</g>
<defs>
<clipPath id="clip0_2395_125">
<rect width="1131.54" height="1131.54" fill="white" transform="translate(0.544922 0.925781)"/>
</clipPath>
</defs>
</svg>
