<svg width="1133" height="1133" viewBox="0 0 1133 1133" fill="none" xmlns="http://www.w3.org/2000/svg">
<g clip-path="url(#clip0_2395_137)">
<path d="M968.174 2.1415L866.14 42.018C820.678 53.6363 774.005 59.5162 727.138 59.5162H405.998C359.151 59.5162 312.459 53.6385 266.997 42.018L164.983 2.1415C134.736 -5.59224 108.665 24.9489 120.226 54.5344L176.017 196.21C125.029 426.251 124.385 675.47 176.017 938.277L129.754 1078.88C118.682 1107.14 142.116 1136.92 171.504 1131.9L286.993 1112.24C304.236 1109.29 321.615 1107.16 338.118 1104.19C372.331 1098.02 406.876 1094.5 441.596 1094.5H691.536C726.256 1094.5 760.821 1098.02 795.014 1104.19C811.535 1107.16 828.896 1109.29 846.157 1112.24L961.628 1131.9C991.017 1136.92 1014.45 1107.14 1003.4 1078.88L957.135 938.277C1009.69 666.369 1008.94 418.009 957.135 196.21L1012.91 54.5344C1024.49 24.9489 998.403 -5.59224 968.174 2.1415Z" fill="#F6FAFD"/>
<path d="M351.767 489.129H781.383V176.68H351.767V489.129Z" fill="#263C28"/>
<path d="M625.154 293.845H507.985C497.205 293.845 488.456 285.115 488.456 274.316C488.456 263.516 497.205 254.787 507.985 254.787H625.154C635.934 254.787 644.683 263.516 644.683 274.316C644.683 285.115 635.934 293.845 625.154 293.845Z" fill="#F6FAFD"/>
<path d="M683.743 391.485H449.406C438.626 391.485 429.877 382.756 429.877 371.956C429.877 361.156 438.626 352.427 449.406 352.427H683.743C694.523 352.427 703.272 361.156 703.272 371.956C703.272 382.756 694.521 391.485 683.743 391.485Z" fill="#F6FAFD"/>
</g>
<defs>
<clipPath id="clip0_2395_137">
<rect width="1131.53" height="1131.53" fill="white" transform="translate(0.80957 0.925781)"/>
</clipPath>
</defs>
</svg>
