<svg width="1132" height="1133" viewBox="0 0 1132 1133" fill="none" xmlns="http://www.w3.org/2000/svg">
<path d="M447.93 295.595V389.89H683.665V295.595H577.584V235C597.881 229.743 612.945 211.461 612.945 189.514C612.945 163.477 591.835 142.367 565.798 142.367C539.761 142.367 518.65 163.477 518.65 189.514C518.65 211.461 533.714 229.731 554.011 235V295.595H447.93Z" fill="white"/>
<path d="M129.687 413.463C129.687 478.562 182.456 531.331 247.554 531.331V484.184H341.849V437.037H247.554V413.463H200.407V333.396C224.276 346.774 254.627 345.689 277.257 329.777C284.801 324.473 284.801 313.865 277.257 308.561C252.67 291.27 218.865 291.27 194.278 308.561C190.506 311.213 188.62 315.197 188.62 319.169C188.62 315.197 186.735 311.213 182.963 308.561C158.376 291.27 124.571 291.27 99.9838 308.561C92.4403 313.865 92.4403 324.473 99.9838 329.777C122.614 345.689 152.965 346.762 176.834 333.396V413.463H129.687Z" fill="white"/>
<path d="M1031.61 329.777C1039.16 324.473 1039.16 313.865 1031.61 308.561C1007.03 291.27 973.223 291.27 948.635 308.561C944.864 311.213 942.978 315.197 942.978 319.169C942.978 315.197 941.092 311.213 937.32 308.561C912.733 291.27 878.928 291.27 854.341 308.561C846.798 313.865 846.798 324.473 854.341 329.777C876.972 345.689 907.323 346.762 931.191 333.396V413.463H884.044V437.037H789.75V484.184H884.044V531.331C949.142 531.331 1001.91 478.562 1001.91 413.463H954.765V333.396C978.633 346.762 1008.98 345.689 1031.61 329.777Z" fill="white"/>
<path d="M754.386 425.25H377.209V684.559H456.64C412.852 737.128 388.996 802.71 388.996 871.958V873.148H412.569V871.958C412.569 801.437 439.596 735.136 488.488 684.559H554.011V743.493H577.584V684.559H643.107C691.999 735.136 719.026 801.437 719.026 871.958V873.148H742.599V871.958C742.599 802.71 718.743 737.128 674.955 684.559H754.386V425.25ZM565.798 625.625C526.736 625.625 495.077 593.966 495.077 554.905C495.077 515.843 526.736 484.184 565.798 484.184C604.859 484.184 636.518 515.843 636.518 554.905C636.518 593.966 604.859 625.625 565.798 625.625Z" fill="#64903A"/>
<path d="M497.375 872.876C518.155 886.737 541.976 893.656 565.797 893.656C589.618 893.656 613.439 886.737 634.219 872.876L621.148 853.263C587.532 875.681 544.074 875.681 510.458 853.263L497.375 872.876Z" fill="white"/>
<path d="M612.321 811.726L601.784 790.64C579.248 801.896 552.362 801.896 529.826 790.64L519.276 811.726C533.845 819.011 549.828 822.653 565.799 822.653C581.77 822.653 597.753 819.011 612.321 811.726Z" fill="white"/>
<path d="M478.024 936.645C505.511 950.388 535.662 957.26 565.8 957.26C595.939 957.26 626.09 950.388 653.577 936.645L643.027 915.558C594.654 939.756 536.923 939.756 488.562 915.558L478.024 936.645Z" fill="white"/>
<path d="M1060.84 83.4339C1060.84 50.8906 1034.45 24.5 1001.91 24.5C969.367 24.5 942.976 50.8906 942.976 83.4339C942.976 84.0233 943.13 84.5655 943.153 85.1548C939.311 84.1412 935.35 83.4339 931.19 83.4339C905.153 83.4339 884.042 104.544 884.042 130.581C884.042 156.618 905.153 177.728 931.19 177.728H1060.84C1086.88 177.728 1107.99 156.618 1107.99 130.581C1107.99 104.544 1086.88 83.4339 1060.84 83.4339Z" fill="#64903A"/>
<path d="M990.122 1001.99C1036.62 996.178 1072.63 956.586 1072.63 908.508C1024.55 908.508 984.959 944.516 979.148 991.015H977.522C971.711 944.516 932.119 908.508 884.041 908.508C884.041 956.586 920.05 996.178 966.548 1001.99V1036.35L825.107 1014.59L683.665 1049.95L636.518 1026.38H577.584L506.864 1038.16L436.143 1026.38L353.635 1014.59L271.128 1026.38L200.407 1049.95L153.26 1031.09V990.202C199.759 984.391 235.767 944.799 235.767 896.721C187.689 896.721 148.097 932.73 142.286 979.228H140.66C134.849 932.73 95.2571 896.721 47.1788 896.721C47.1788 944.799 83.1874 984.391 129.686 990.202V1030.3L70.7524 1049.95H23.6052V1108.88H1107.99V1014.59L990.122 1036.02V1001.99Z" fill="#64903A"/>
</svg>
