<svg width="1240" height="1241" viewBox="0 0 1240 1241" fill="none" xmlns="http://www.w3.org/2000/svg">
<path d="M943.345 99.5939L813.982 150.401L735.425 231.259V332.783C732.039 332.632 713.21 332.065 689.22 331.519V309.815C689.22 295.954 679.979 286.713 666.118 286.713C652.256 286.713 643.016 295.954 643.016 309.815V331.068C620.304 331.018 597.272 331.404 573.709 332.331V309.816C573.709 295.954 564.468 286.714 550.606 286.714C536.745 286.714 527.504 295.954 527.504 309.816V334.542C493.428 336.394 462.709 338.764 435.095 341.536V309.815C435.095 295.954 425.854 286.713 411.993 286.713C398.131 286.713 388.89 295.954 388.89 309.815V346.544C356.711 350.515 331.17 354.321 318.365 356.291H318.275L318.139 356.336C309.896 357.687 304.25 358.957 296.481 360.307V319.066C296.481 305.204 287.24 295.963 273.379 295.963C259.517 295.963 250.276 305.204 250.276 319.066V368.835C196.405 379.319 158.273 388.379 134.765 394.78V346.77C134.765 332.909 125.524 323.668 111.663 323.668C97.8015 323.668 88.5605 332.909 88.5605 346.77V621.697C104.732 610.145 118.594 598.585 134.765 589.344V442.519C153.939 437.008 192.808 427.102 250.277 415.716V513.134C250.277 517.754 252.578 520.065 252.578 524.685C266.439 517.754 280.31 513.107 296.481 508.486V407.278C306.715 405.467 314.471 403.739 325.63 401.909C337.721 400.049 360.766 396.669 388.89 393.111V476.135V480.782H391.192C405.053 476.162 418.923 471.55 435.095 466.93V387.967C462.443 385.163 493.281 382.735 527.504 380.838V446.129C541.365 443.819 557.537 441.49 573.709 439.18V378.536C596.998 377.59 620.125 377.22 643.016 377.273V429.93C649.946 429.93 656.895 427.628 661.515 427.628H689.22V377.724C712.722 378.264 733.195 378.893 735.425 378.987V425.327C765.458 425.327 793.18 425.318 827.834 427.628V309.815C827.834 295.954 837.075 286.713 850.936 286.713H1035.75C1049.62 286.713 1058.86 295.954 1058.86 309.815V443.827C1088.89 446.137 1121.23 450.757 1151.27 455.378V231.258L1072.71 152.702L943.345 99.5939ZM943.345 194.304C957.207 194.304 966.448 203.545 966.448 217.407C966.448 231.268 957.207 240.509 943.345 240.509C929.484 240.509 920.243 231.268 920.243 217.407C920.243 203.545 929.484 194.304 943.345 194.304ZM721.572 476.134C624.543 522.339 529.823 575.51 444.345 640.197C319.592 730.295 215.632 834.229 97.8105 982.083L88.5605 991.333V1141.5H294.18L296.481 1134.55C310.343 1097.59 409.664 903.553 532.107 758.009C638.377 630.946 742.364 538.546 825.533 478.48C786.259 476.17 753.916 476.134 721.572 476.134ZM904.089 483.083C823.231 529.287 696.169 633.238 569.106 785.714C453.595 926.638 363.469 1097.6 344.987 1141.5H596.811L599.112 1134.55C643.007 1002.87 700.771 878.123 770.078 762.611C841.695 647.1 920.252 550.061 975.698 487.685C952.595 485.374 929.502 485.393 904.089 483.083ZM601.413 485.384C515.935 496.935 448.938 515.435 405.044 526.986C333.427 547.778 277.981 563.932 208.674 600.896C171.711 621.688 134.756 644.781 102.413 672.504L88.5605 684.055V919.725C199.452 785.732 298.773 690.986 416.595 603.197C474.351 559.302 536.727 522.348 601.413 485.384ZM1033.45 490.032C980.318 550.098 887.882 654.031 809.334 785.714C742.337 896.605 686.901 1016.75 645.317 1141.5H871.737L874.039 1136.9C897.141 1032.94 927.156 931.258 959.499 831.918C996.463 718.717 1042.69 605.516 1091.21 496.935C1072.73 494.625 1054.25 492.342 1033.45 490.032ZM1137.41 503.884C1086.59 614.775 1040.37 730.259 1001.1 845.771C968.758 942.8 941.044 1042.16 917.942 1141.5H1151.27V503.884L1137.41 503.884Z" fill="white"/>
<path d="M610.611 484.166C370.669 604.936 162.452 826.878 88.3359 922.753V684.862C201.589 555.828 483.708 498.202 610.611 484.166Z" fill="#64903A"/>
<path d="M88.3359 1142.05V991.719C305.305 689.202 599.763 520.586 719.871 476.417H833.005C522.274 706.56 344.049 1021.94 294.457 1142.05H88.3359Z" fill="#64903A"/>
<path d="M597.132 1141.27L344.828 1142.05C478.564 804.418 777.975 558.903 902.836 482.616L976.363 487.265C740.312 754.917 633.507 1038.87 597.132 1141.27Z" fill="#64903A"/>
<path d="M873.3 1141.27L645.482 1142.05C736.144 838.289 944.59 584.126 1033.7 489.589L1092.59 498.113C951.254 808.069 890.347 1057.58 873.3 1141.27Z" fill="#64903A"/>
<path d="M1152.26 1143.6H918.243C972.175 883.853 1086.91 609.181 1137.54 504.312H1152.26V1143.6Z" fill="white"/>
</svg>
