<svg width="1517" height="1242" viewBox="0 0 1517 1242" fill="none" xmlns="http://www.w3.org/2000/svg">
<g clip-path="url(#clip0_2396_237)">
<path d="M1491.45 416.919H430.193C416.219 416.919 404.926 428.239 404.926 442.186V745.401H354.389V517.99C354.389 504.043 343.095 492.723 329.122 492.723H126.977C116.643 492.723 107.369 499.015 103.505 508.591L2.43114 761.27C1.24374 764.278 0.636719 767.461 0.636719 770.671V1023.35C0.636719 1037.3 11.9303 1048.62 25.9037 1048.62H115.758C133.293 1078.69 165.537 1099.15 202.781 1099.15C258.524 1099.15 303.852 1053.82 303.852 998.082H404.923C404.923 1053.82 450.254 1099.15 505.993 1099.15C561.733 1099.15 607.064 1053.82 607.064 998.082H682.868C696.841 998.082 708.135 986.762 708.135 972.815V795.938H758.675V970.917C758.145 977.059 759.838 983.247 763.602 988.275C768.352 994.642 775.858 998.408 783.841 998.408H783.868L859.772 998.331C859.899 1053.95 905.154 1099.15 960.819 1099.15C1016.56 1099.15 1061.89 1053.82 1061.89 998.079H1213.5C1213.5 1053.82 1258.83 1099.15 1314.57 1099.15C1370.31 1099.15 1415.64 1053.82 1415.64 998.079H1491.44C1505.42 998.079 1516.71 986.759 1516.71 972.812V770.668V442.186C1516.71 428.239 1505.42 416.919 1491.45 416.919ZM103.653 644.33H202.778V745.401H63.2222L103.653 644.33ZM202.781 1048.62C174.911 1048.62 152.244 1025.95 152.244 998.079C152.244 970.21 174.908 947.543 202.781 947.543C230.651 947.543 253.318 970.207 253.318 998.079C253.315 1025.95 230.651 1048.62 202.781 1048.62ZM505.996 1048.62C478.127 1048.62 455.46 1025.95 455.46 998.079C455.46 970.21 478.124 947.543 505.996 947.543C533.866 947.543 556.533 970.207 556.533 998.079C556.53 1025.95 533.866 1048.62 505.996 1048.62ZM657.604 846.475H632.337C618.364 846.475 607.07 857.795 607.07 871.742C607.07 885.688 618.364 897.009 632.337 897.009H657.604V947.546H593.02C575.484 917.476 543.268 897.009 505.996 897.009C468.725 897.009 436.509 917.476 418.973 947.546H289.778C272.266 917.476 240.026 897.009 202.781 897.009C147.039 897.009 101.71 942.34 101.71 998.079H51.1736V897.009H76.4405C90.4139 897.009 101.707 885.688 101.707 871.742C101.707 857.795 90.4139 846.475 76.4405 846.475H51.1736V795.938H228.048C242.021 795.938 253.315 784.618 253.315 770.671V619.063C253.315 605.117 242.021 593.796 228.048 593.796H123.868L144.084 543.26H303.852V770.671C303.852 784.618 315.145 795.938 329.119 795.938H657.601V846.475H657.604ZM960.819 1048.62C932.949 1048.62 910.282 1025.95 910.282 998.079C910.282 970.21 932.946 947.543 960.819 947.543C988.689 947.543 1011.36 970.207 1011.36 998.079C1011.35 1025.95 988.689 1048.62 960.819 1048.62ZM1314.57 1048.62C1286.7 1048.62 1264.03 1025.95 1264.03 998.079C1264.03 970.21 1286.7 947.543 1314.57 947.543C1342.44 947.543 1365.11 970.207 1365.11 998.079C1365.11 1025.95 1342.44 1048.62 1314.57 1048.62ZM1466.18 846.475H1440.91C1426.94 846.475 1415.64 857.795 1415.64 871.742C1415.64 885.688 1426.94 897.009 1440.91 897.009H1466.18V947.546H1401.59C1384.06 917.476 1351.84 897.009 1314.57 897.009C1277.3 897.009 1245.08 917.476 1227.54 947.546H1047.81C1030.28 917.476 998.061 897.009 960.789 897.009C923.444 897.009 891.151 917.603 873.639 947.771L809.206 947.848V795.938H1466.17V846.475H1466.18ZM1466.18 745.401H455.46V467.453H1466.18V745.401Z" fill="white"/>
<circle cx="203.41" cy="998.714" r="41.6921" fill="#64903A"/>
<circle cx="506.628" cy="998.714" r="41.6921" fill="#64903A"/>
<circle cx="959.558" cy="998.714" r="41.6921" fill="#64903A"/>
<circle cx="1315.83" cy="998.714" r="41.6921" fill="#64903A"/>
<path d="M404.29 441.556C404.29 427.95 415.32 416.92 428.926 416.92H1492.07C1505.68 416.92 1516.71 427.95 1516.71 441.556V744.771H404.29V441.556Z" fill="#64903A"/>
</g>
<defs>
<clipPath id="clip0_2396_237">
<rect width="1516.08" height="1241.29" fill="white" transform="translate(0.636719)"/>
</clipPath>
</defs>
</svg>
