<svg width="1132" height="1133" viewBox="0 0 1132 1133" fill="none" xmlns="http://www.w3.org/2000/svg">
<path d="M321.876 315.633C212.259 386.354 141.538 499.507 141.538 616.196C141.538 803.606 332.484 920.295 565.863 920.295C799.241 920.295 990.187 803.606 990.187 616.196C990.187 503.043 919.466 389.89 809.849 315.633C728.52 262.592 650.728 202.48 587.079 128.223L565.863 107.007" stroke="white" stroke-width="70.7207" stroke-miterlimit="10" stroke-linecap="round" stroke-linejoin="round"/>
<path d="M580.007 131.759L565.863 107.007L551.719 131.759C509.286 202.48 456.246 262.592 403.205 319.169C328.948 389.89 282.98 503.043 282.98 619.732C282.98 807.142 410.277 923.831 565.863 923.831C721.448 923.831 848.746 807.142 848.746 619.732C848.746 506.579 802.777 393.426 728.52 319.169C675.48 262.592 622.439 202.48 580.007 131.759Z" stroke="white" stroke-width="70.7207" stroke-miterlimit="10" stroke-linecap="round" stroke-linejoin="round"/>
<path d="M569.399 131.759L565.863 107.007L562.327 131.759C544.646 202.48 526.966 262.592 505.75 319.169C477.462 389.89 459.782 503.043 459.782 619.732C459.782 807.142 505.75 923.831 565.863 923.831C625.975 923.831 671.944 807.142 671.944 619.732C671.944 506.579 654.264 393.426 625.975 319.169C604.759 262.592 587.079 202.48 569.399 131.759Z" stroke="white" stroke-width="70.7207" stroke-miterlimit="10" stroke-linecap="round" stroke-linejoin="round"/>
<path d="M565.863 1061.74V920.295" stroke="#64903A" stroke-width="70.7207" stroke-miterlimit="10" stroke-linecap="round" stroke-linejoin="round"/>
<path d="M671.944 1026.38L565.863 920.295" stroke="#64903A" stroke-width="70.7207" stroke-miterlimit="10" stroke-linecap="round" stroke-linejoin="round"/>
<path d="M459.782 1026.38L565.863 920.295" stroke="#64903A" stroke-width="70.7207" stroke-miterlimit="10" stroke-linecap="round" stroke-linejoin="round"/>
</svg>
