<svg xmlns="http://www.w3.org/2000/svg" width="35" height="35" viewBox="0 0 35 35" fill="none">
  <g clip-path="url(#clip0_2061_3044)">
    <path d="M24.6045 2.97675C26.5165 2.97675 28.3502 3.73629 29.7022 5.0883C31.0542 6.44031 31.8138 8.27402 31.8138 10.186V24.6047C31.8138 26.5167 31.0542 28.3504 29.7022 29.7024C28.3502 31.0544 26.5165 31.814 24.6045 31.814H10.1859C8.27384 31.814 6.44012 31.0544 5.08812 29.7024C3.73611 28.3504 2.97656 26.5167 2.97656 24.6047V10.186C2.97656 8.27402 3.73611 6.44031 5.08812 5.0883C6.44012 3.73629 8.27384 2.97675 10.1859 2.97675H24.6045ZM11.6277 14.5116C11.2453 14.5116 10.8786 14.6635 10.6082 14.9339C10.3378 15.2043 10.1859 15.5711 10.1859 15.9535V23.1628C10.1859 23.5452 10.3378 23.9119 10.6082 24.1823C10.8786 24.4527 11.2453 24.6047 11.6277 24.6047C12.0101 24.6047 12.3769 24.4527 12.6473 24.1823C12.9177 23.9119 13.0696 23.5452 13.0696 23.1628V15.9535C13.0696 15.5711 12.9177 15.2043 12.6473 14.9339C12.3769 14.6635 12.0101 14.5116 11.6277 14.5116ZM20.2789 14.5116C19.7004 14.5113 19.1278 14.627 18.5948 14.8519L18.4146 14.9341C18.2129 14.7325 17.956 14.5952 17.6764 14.5396C17.3967 14.484 17.1069 14.5126 16.8434 14.6217C16.58 14.7308 16.3548 14.9155 16.1964 15.1526C16.038 15.3897 15.9534 15.6684 15.9533 15.9535V23.1628C15.9533 23.5452 16.1052 23.9119 16.3756 24.1823C16.646 24.4527 17.0128 24.6047 17.3952 24.6047C17.7776 24.6047 18.1443 24.4527 18.4147 24.1823C18.6851 23.9119 18.837 23.5452 18.837 23.1628V18.8372C18.837 18.4548 18.9889 18.0881 19.2593 17.8177C19.5297 17.5473 19.8965 17.3953 20.2789 17.3953C20.6613 17.3953 21.028 17.5473 21.2984 17.8177C21.5688 18.0881 21.7207 18.4548 21.7207 18.8372V23.1628C21.7207 23.5452 21.8727 23.9119 22.1431 24.1823C22.4135 24.4527 22.7802 24.6047 23.1626 24.6047C23.545 24.6047 23.9118 24.4527 24.1822 24.1823C24.4526 23.9119 24.6045 23.5452 24.6045 23.1628V18.8372C24.6045 17.69 24.1487 16.5898 23.3375 15.7786C22.5263 14.9674 21.4261 14.5116 20.2789 14.5116ZM11.6277 10.186C11.2746 10.1861 10.9337 10.3158 10.6698 10.5504C10.4059 10.7851 10.2373 11.1085 10.196 11.4592L10.1859 11.6423C10.1863 12.0098 10.327 12.3633 10.5793 12.6305C10.8316 12.8978 11.1764 13.0586 11.5432 13.0801C11.9101 13.1016 12.2713 12.9823 12.5532 12.7464C12.835 12.5105 13.0161 12.176 13.0595 11.811L13.0696 11.6279C13.0696 11.2455 12.9177 10.8788 12.6473 10.6084C12.3769 10.338 12.0101 10.186 11.6277 10.186Z" fill="white"/>
  </g>
  <defs>
    <clipPath id="clip0_2061_3044">
      <rect width="34.6047" height="34.6047" fill="white" transform="translate(0.0927734 0.0930176)"/>
    </clipPath>
  </defs>
</svg>