<svg width="662" height="85" viewBox="0 0 662 85" fill="none" xmlns="http://www.w3.org/2000/svg">
<path d="M88.1998 70.12C88.4998 70.85 88.7299 71.6 88.8499 72.39H88.8899C89.0899 71.24 89.4599 70.41 89.7999 69.58L91.1199 66.22H94.1399L90.2299 74.74V81.04H87.4598V74.74L83.6099 66.22H86.6299L88.1898 70.11L88.1998 70.12Z" fill="#231F20"/>
<path d="M102.35 66.23H105.12V76.56C105.12 79.84 104.05 81.4 100.44 81.4C96.8297 81.4 95.7197 79.84 95.7197 76.56V66.23H98.4897V76.33C98.4897 77.75 98.5897 79.18 100.47 79.18C102.35 79.18 102.37 77.76 102.37 76.33V66.23H102.35Z" fill="#231F20"/>
<path d="M106.63 81.05L110.17 66.23H113.9L117.26 81.05H114.3L113.57 77.3H110.33L109.6 81.05H106.64H106.63ZM110.76 75.12H113.13L112.38 70.91C112.24 70.22 112.18 69.55 112.1 68.85C112.08 68.51 112.04 68.18 112 67.86H111.96C111.92 68.18 111.88 68.51 111.86 68.85C111.78 69.54 111.72 70.21 111.58 70.91L110.75 75.12H110.76Z" fill="#231F20"/>
<path d="M125.4 66.23H128.17V81.05H125.29L123.14 75.77C122.41 74.01 121.82 72.21 121.16 69.88H121.12C121.22 71.1 121.34 72.61 121.42 74.11C121.5 75.59 121.56 77.07 121.56 78.26V81.05H118.79V66.23H121.66L123.81 71.62C124.52 73.34 125.11 75.1 125.79 77.51H125.83C125.73 76.17 125.63 74.72 125.55 73.3C125.47 71.88 125.41 70.45 125.41 69.13V66.22L125.4 66.23Z" fill="#231F20"/>
<path d="M141.45 70.74C141.47 69.42 141.35 68.11 139.83 68.11C138.9 68.11 138.31 68.49 138.31 69.49C138.31 70.62 139.02 71.05 139.89 71.6C140.8 72.17 142.48 73.28 143.25 74.03C144.2 74.96 144.5 75.85 144.5 77.13C144.5 79.94 142.64 81.4 139.94 81.4C136.62 81.4 135.43 79.54 135.43 76.9V75.81H138.2V76.68C138.14 78.12 138.58 79.17 139.94 79.17C141.11 79.17 141.66 78.56 141.66 77.43C141.66 76.56 141.27 75.97 140.55 75.47C139.11 74.34 137.31 73.53 136.18 72.05C135.73 71.38 135.47 70.57 135.47 69.78C135.47 67.25 136.89 65.87 139.82 65.87C144.23 65.87 144.11 69.27 144.13 70.73H141.46L141.45 70.74Z" fill="#231F20"/>
<path d="M146.79 81.05V66.23H149.56V72.1H153.43V66.23H156.2V81.05H153.43V74.27H149.56V81.05H146.79Z" fill="#231F20"/>
<path d="M158.79 81.05V66.23H166.58V68.4H161.56V72.13H166.18V74.3H161.56V78.86H166.58V81.03H158.79V81.05Z" fill="#231F20"/>
<path d="M175.37 66.23H178.14V81.05H175.26L173.11 75.77C172.38 74.01 171.79 72.21 171.13 69.88H171.09C171.19 71.1 171.31 72.61 171.39 74.11C171.47 75.59 171.53 77.07 171.53 78.26V81.05H168.76V66.23H171.63L173.78 71.62C174.49 73.34 175.08 75.1 175.76 77.51H175.8C175.7 76.17 175.6 74.72 175.52 73.3C175.44 71.88 175.38 70.45 175.38 69.13V66.22L175.37 66.23Z" fill="#231F20"/>
<path d="M180.57 72.45C180.69 68.68 180.99 65.87 185.41 65.87C187.78 65.89 189.42 66.5 190.05 69.07C190.19 69.66 190.17 70.28 190.19 70.87H187.42C187.38 69.37 187.28 68.18 185.4 68.1C183.23 68.1 183.4 70.69 183.4 71.84V75.95C183.4 77.17 183.5 79.17 185.4 79.17C186.98 79.17 187.49 77.49 187.44 75.26H185.52V73.09H190.12V81.05H188.05V79.35H188.01C187.46 80.89 186.41 81.33 185.4 81.4C180.86 81.4 180.56 78.52 180.56 74.56V72.45H180.57Z" fill="#231F20"/>
<path d="M204.47 66.23H207.24V81.05H204.36L202.21 75.77C201.48 74.01 200.89 72.21 200.23 69.88H200.19C200.29 71.1 200.41 72.61 200.49 74.11C200.57 75.59 200.63 77.07 200.63 78.26V81.05H197.86V66.23H200.73L202.88 71.62C203.59 73.34 204.18 75.1 204.86 77.51H204.9C204.8 76.17 204.7 74.72 204.62 73.3C204.54 71.88 204.48 70.45 204.48 69.13V66.22L204.47 66.23Z" fill="#231F20"/>
<path d="M209.79 72.45C209.91 68.68 210.21 65.87 214.63 65.87C219.05 65.87 219.35 68.68 219.47 72.45V74.56C219.47 78.51 219.17 81.4 214.63 81.4C210.09 81.4 209.79 78.52 209.79 74.56V72.45ZM212.63 75.95C212.63 77.17 212.73 79.17 214.63 79.17C216.53 79.17 216.63 77.13 216.63 75.71V71.92C216.63 70.73 216.69 68.11 214.63 68.11C212.46 68.11 212.63 70.7 212.63 71.85V75.96V75.95Z" fill="#231F20"/>
<path d="M228.62 66.23H231.39V81.05H228.51L226.36 75.77C225.63 74.01 225.04 72.21 224.38 69.88H224.34C224.44 71.1 224.56 72.61 224.64 74.11C224.72 75.59 224.78 77.07 224.78 78.26V81.05H222.01V66.23H224.88L227.03 71.62C227.74 73.34 228.33 75.1 229.01 77.51H229.05C228.95 76.17 228.85 74.72 228.77 73.3C228.69 71.88 228.63 70.45 228.63 69.13V66.22L228.62 66.23Z" fill="#231F20"/>
<path d="M233.82 72.45C233.94 68.68 234.24 65.87 238.66 65.87C241.03 65.89 242.67 66.5 243.3 69.07C243.44 69.66 243.42 70.28 243.44 70.87H240.67C240.63 69.37 240.53 68.18 238.65 68.1C236.48 68.1 236.65 70.69 236.65 71.84V75.95C236.65 77.17 236.75 79.17 238.65 79.17C240.23 79.17 240.74 77.49 240.69 75.26H238.77V73.09H243.37V81.05H241.3V79.35H241.26C240.71 80.89 239.66 81.33 238.65 81.4C234.11 81.4 233.81 78.52 233.81 74.56V72.45H233.82Z" fill="#231F20"/>
<path d="M255.27 65.87C254.08 68.2 253.39 70.49 253.39 75.85C253.39 79.47 253.81 81.68 255.31 84.96H253.67C251.56 81.36 250.79 79.27 250.79 75.04C250.79 71.6 251.64 68.66 253.67 65.87H255.27Z" fill="#231F20"/>
<path d="M263.33 70.74C263.35 69.42 263.23 68.11 261.71 68.11C260.78 68.11 260.19 68.49 260.19 69.49C260.19 70.62 260.9 71.05 261.77 71.6C262.68 72.17 264.36 73.28 265.13 74.03C266.08 74.96 266.38 75.85 266.38 77.13C266.38 79.94 264.52 81.4 261.82 81.4C258.5 81.4 257.31 79.54 257.31 76.9V75.81H260.08V76.68C260.02 78.12 260.46 79.17 261.82 79.17C262.99 79.17 263.54 78.56 263.54 77.43C263.54 76.56 263.15 75.97 262.43 75.47C260.99 74.34 259.19 73.53 258.06 72.05C257.61 71.38 257.35 70.57 257.35 69.78C257.35 67.25 258.77 65.87 261.7 65.87C266.11 65.87 265.99 69.27 266.01 70.73H263.34L263.33 70.74Z" fill="#231F20"/>
<path d="M268.67 81.05V66.23H271.44V72.1H275.31V66.23H278.08V81.05H275.31V74.27H271.44V81.05H268.67Z" fill="#231F20"/>
<path d="M280.67 81.05V66.23H288.46V68.4H283.44V72.13H288.06V74.3H283.44V78.86H288.46V81.03H280.67V81.05Z" fill="#231F20"/>
<path d="M297.25 66.23H300.02V81.05H297.14L294.99 75.77C294.26 74.01 293.67 72.21 293.01 69.88H292.97C293.07 71.1 293.19 72.61 293.27 74.11C293.35 75.59 293.41 77.07 293.41 78.26V81.05H290.64V66.23H293.51L295.66 71.62C296.37 73.34 296.96 75.1 297.64 77.51H297.68C297.58 76.17 297.48 74.72 297.4 73.3C297.32 71.88 297.26 70.45 297.26 69.13V66.22L297.25 66.23Z" fill="#231F20"/>
<path d="M302.02 78.84L306.78 69.65C307.02 69.22 307.21 68.76 307.55 68.35C307.19 68.41 306.84 68.41 306.48 68.41H302.33V66.24H310.43V68.45L305.67 77.64C305.43 78.08 305.24 78.53 304.9 78.94C305.26 78.88 305.61 78.88 305.97 78.88H310.61V81.05H302.01V78.84H302.02Z" fill="#231F20"/>
<path d="M312.59 81.05V66.23H315.36V72.1H319.23V66.23H322V81.05H319.23V74.27H315.36V81.05H312.59Z" fill="#231F20"/>
<path d="M324.59 81.05V66.23H332.38V68.4H327.36V72.13H331.98V74.3H327.36V78.86H332.38V81.03H324.59V81.05Z" fill="#231F20"/>
<path d="M341.17 66.23H343.94V81.05H341.06L338.91 75.77C338.18 74.01 337.59 72.21 336.93 69.88H336.89C336.99 71.1 337.11 72.61 337.19 74.11C337.27 75.59 337.33 77.07 337.33 78.26V81.05H334.56V66.23H337.43L339.58 71.62C340.29 73.34 340.88 75.1 341.56 77.51H341.6C341.5 76.17 341.4 74.72 341.32 73.3C341.24 71.88 341.18 70.45 341.18 69.13V66.22L341.17 66.23Z" fill="#231F20"/>
<path d="M346.35 84.96C347.54 82.63 348.23 80.34 348.23 74.98C348.23 71.36 347.81 69.15 346.31 65.87H347.95C350.06 69.47 350.83 71.56 350.83 75.79C350.83 79.23 349.98 82.17 347.95 84.96H346.35Z" fill="#231F20"/>
<path d="M358.17 81.05V66.23H360.94V81.05H358.17Z" fill="#231F20"/>
<path d="M370.27 66.23H373.04V81.05H370.16L368.01 75.77C367.28 74.01 366.69 72.21 366.03 69.88H365.99C366.09 71.1 366.21 72.61 366.29 74.11C366.37 75.59 366.43 77.07 366.43 78.26V81.05H363.66V66.23H366.53L368.68 71.62C369.39 73.34 369.98 75.1 370.66 77.51H370.7C370.6 76.17 370.5 74.72 370.42 73.3C370.34 71.88 370.28 70.45 370.28 69.13V66.22L370.27 66.23Z" fill="#231F20"/>
<path d="M374.72 66.23H383.95V68.4H380.73V81.05H377.96V68.4H374.72V66.23Z" fill="#231F20"/>
<path d="M385.53 81.05V66.23H393.32V68.4H388.3V72.13H392.92V74.3H388.3V78.86H393.32V81.03H385.53V81.05Z" fill="#231F20"/>
<path d="M398.22 74.67V81.05H395.45V66.23H400.69C403.08 66.23 404.9 67.06 404.9 69.79C404.9 71.41 404.48 73.11 402.63 73.37V73.41C404.27 73.63 404.76 74.67 404.76 76.1C404.76 76.71 404.68 80.35 405.35 80.78V81.06H402.31C401.97 80.11 402.03 78.29 402.01 77.31C401.99 76.4 402.01 75.16 401.06 74.88C400.31 74.66 399.5 74.68 398.71 74.68H398.22V74.67ZM398.22 72.49H400.39C401.3 72.43 402.01 71.84 402.01 70.36C402.01 68.7 401.32 68.42 400.27 68.4H398.21V72.49H398.22Z" fill="#231F20"/>
<path d="M414.19 66.23H416.96V81.05H414.08L411.93 75.77C411.2 74.01 410.61 72.21 409.95 69.88H409.91C410.01 71.1 410.13 72.61 410.21 74.11C410.29 75.59 410.35 77.07 410.35 78.26V81.05H407.58V66.23H410.45L412.6 71.62C413.31 73.34 413.9 75.1 414.58 77.51H414.62C414.52 76.17 414.42 74.72 414.34 73.3C414.26 71.88 414.2 70.45 414.2 69.13V66.22L414.19 66.23Z" fill="#231F20"/>
<path d="M418.48 81.05L422.02 66.23H425.75L429.11 81.05H426.15L425.42 77.3H422.18L421.45 81.05H418.49H418.48ZM422.61 75.12H424.98L424.23 70.91C424.09 70.22 424.03 69.55 423.95 68.85C423.93 68.51 423.89 68.18 423.85 67.86H423.81C423.77 68.18 423.73 68.51 423.71 68.85C423.63 69.54 423.57 70.21 423.43 70.91L422.6 75.12H422.61Z" fill="#231F20"/>
<path d="M428.54 66.23H437.77V68.4H434.55V81.05H431.78V68.4H428.54V66.23Z" fill="#231F20"/>
<path d="M439.45 81.05V66.23H442.22V81.05H439.45Z" fill="#231F20"/>
<path d="M444.79 72.45C444.91 68.68 445.21 65.87 449.63 65.87C454.05 65.87 454.35 68.68 454.47 72.45V74.56C454.47 78.51 454.17 81.4 449.63 81.4C445.09 81.4 444.79 78.52 444.79 74.56V72.45ZM447.63 75.95C447.63 77.17 447.73 79.17 449.63 79.17C451.53 79.17 451.63 77.13 451.63 75.71V71.92C451.63 70.73 451.69 68.11 449.63 68.11C447.46 68.11 447.63 70.7 447.63 71.85V75.96V75.95Z" fill="#231F20"/>
<path d="M463.62 66.23H466.39V81.05H463.51L461.36 75.77C460.63 74.01 460.04 72.21 459.38 69.88H459.34C459.44 71.1 459.56 72.61 459.64 74.11C459.72 75.59 459.78 77.07 459.78 78.26V81.05H457.01V66.23H459.88L462.03 71.62C462.74 73.34 463.33 75.1 464.01 77.51H464.05C463.95 76.17 463.85 74.72 463.77 73.3C463.69 71.88 463.63 70.45 463.63 69.13V66.22L463.62 66.23Z" fill="#231F20"/>
<path d="M467.92 81.05L471.46 66.23H475.19L478.55 81.05H475.59L474.86 77.3H471.62L470.89 81.05H467.93H467.92ZM472.04 75.12H474.41L473.66 70.91C473.52 70.22 473.46 69.55 473.38 68.85C473.36 68.51 473.32 68.18 473.28 67.86H473.24C473.2 68.18 473.16 68.51 473.14 68.85C473.06 69.54 473 70.21 472.86 70.91L472.03 75.12H472.04Z" fill="#231F20"/>
<path d="M480.07 81.05V66.23H482.84V78.88H487.98V81.05H480.08H480.07Z" fill="#231F20"/>
<path d="M503.67 75.77C503.65 76.05 503.63 76.34 503.61 76.62C503.47 79.33 502.56 81.4 499.48 81.4C494.94 81.4 494.64 78.52 494.64 74.56V72.45C494.76 68.68 495.06 65.87 499.48 65.87C501.95 65.91 503.33 67.17 503.53 69.7C503.57 70.08 503.61 70.45 503.59 70.83H500.86C500.74 69.88 500.84 68.1 499.48 68.1C497.31 68.1 497.48 70.69 497.48 71.84V75.95C497.48 77.17 497.58 79.17 499.48 79.17C501 79.17 500.82 76.72 500.88 75.77H503.67Z" fill="#231F20"/>
<path d="M505.75 72.45C505.87 68.68 506.17 65.87 510.59 65.87C515.01 65.87 515.31 68.68 515.43 72.45V74.56C515.43 78.51 515.13 81.4 510.59 81.4C506.05 81.4 505.75 78.52 505.75 74.56V72.45ZM508.59 75.95C508.59 77.17 508.69 79.17 510.59 79.17C512.49 79.17 512.59 77.13 512.59 75.71V71.92C512.59 70.73 512.65 68.11 510.59 68.11C508.42 68.11 508.59 70.7 508.59 71.85V75.96V75.95Z" fill="#231F20"/>
<path d="M520.71 81.05H517.94V66.23H522.35L523.83 73.11C524.07 74.24 524.22 75.38 524.34 76.53H524.38C524.52 75.07 524.62 74.08 524.81 73.11L526.29 66.23H530.68V81.05H527.91V76.39C527.91 73.45 527.97 70.5 528.15 67.56H528.11L525.15 81.06H523.47L520.57 67.56H520.47C520.65 70.5 520.71 73.45 520.71 76.39V81.05Z" fill="#231F20"/>
<path d="M536.09 81.05H533.32V66.23H537.73L539.21 73.11C539.45 74.24 539.6 75.38 539.72 76.53H539.76C539.9 75.07 540 74.08 540.19 73.11L541.67 66.23H546.06V81.05H543.29V76.39C543.29 73.45 543.35 70.5 543.53 67.56H543.49L540.53 81.06H538.85L535.95 67.56H535.85C536.03 70.5 536.09 73.45 536.09 76.39V81.05Z" fill="#231F20"/>
<path d="M548.64 81.05V66.23H556.43V68.4H551.41V72.13H556.03V74.3H551.41V78.86H556.43V81.03H548.64V81.05Z" fill="#231F20"/>
<path d="M561.33 74.67V81.05H558.56V66.23H563.8C566.19 66.23 568.01 67.06 568.01 69.79C568.01 71.41 567.6 73.11 565.74 73.37V73.41C567.38 73.63 567.87 74.67 567.87 76.1C567.87 76.71 567.79 80.35 568.46 80.78V81.06H565.42C565.08 80.11 565.14 78.29 565.12 77.31C565.1 76.4 565.12 75.16 564.17 74.88C563.42 74.66 562.61 74.68 561.82 74.68H561.33V74.67ZM561.33 72.49H563.5C564.41 72.43 565.12 71.84 565.12 70.36C565.12 68.7 564.43 68.42 563.38 68.4H561.32V72.49H561.33Z" fill="#231F20"/>
<path d="M579.45 75.77C579.43 76.05 579.41 76.34 579.39 76.62C579.25 79.33 578.34 81.4 575.26 81.4C570.72 81.4 570.42 78.52 570.42 74.56V72.45C570.54 68.68 570.84 65.87 575.26 65.87C577.73 65.91 579.11 67.17 579.31 69.7C579.35 70.08 579.39 70.45 579.37 70.83H576.64C576.52 69.88 576.62 68.1 575.26 68.1C573.09 68.1 573.26 70.69 573.26 71.84V75.95C573.26 77.17 573.36 79.17 575.26 79.17C576.78 79.17 576.6 76.72 576.66 75.77H579.45Z" fill="#231F20"/>
<path d="M581.59 81.05V66.23H589.38V68.4H584.36V72.13H588.98V74.3H584.36V78.86H589.38V81.03H581.59V81.05Z" fill="#231F20"/>
<path d="M605.27 75.77C605.25 76.05 605.23 76.34 605.21 76.62C605.07 79.33 604.16 81.4 601.08 81.4C596.54 81.4 596.24 78.52 596.24 74.56V72.45C596.36 68.68 596.66 65.87 601.08 65.87C603.55 65.91 604.93 67.17 605.13 69.7C605.17 70.08 605.21 70.45 605.19 70.83H602.46C602.34 69.88 602.44 68.1 601.08 68.1C598.91 68.1 599.08 70.69 599.08 71.84V75.95C599.08 77.17 599.18 79.17 601.08 79.17C602.6 79.17 602.42 76.72 602.48 75.77H605.27Z" fill="#231F20"/>
<path d="M607.35 72.45C607.47 68.68 607.77 65.87 612.19 65.87C616.61 65.87 616.91 68.68 617.03 72.45V74.56C617.03 78.51 616.73 81.4 612.19 81.4C607.65 81.4 607.35 78.52 607.35 74.56V72.45ZM610.19 75.95C610.19 77.17 610.29 79.17 612.19 79.17C614.09 79.17 614.19 77.13 614.19 75.71V71.92C614.19 70.73 614.25 68.11 612.19 68.11C610.02 68.11 610.19 70.7 610.19 71.85V75.96V75.95Z" fill="#231F20"/>
<path d="M620.21 81.0499V78.4399H622.82V81.0499H620.21Z" fill="#231F20"/>
<path d="M626.8 83.0499C627.73 82.9499 628.24 82.1199 628.18 81.0499H626.8V78.4399H629.41V80.9899C629.41 82.6699 628.54 83.6999 626.8 83.9099V83.0399V83.0499Z" fill="#231F20"/>
<path d="M632.73 81.05V66.23H635.5V78.88H640.64V81.05H632.74H632.73Z" fill="#231F20"/>
<path d="M640.14 66.23H649.37V68.4H646.15V81.05H643.38V68.4H640.14V66.23Z" fill="#231F20"/>
<path d="M651.11 81.05V66.23H656.88C657.55 66.23 658.9 66.53 659.75 67.91C660.38 68.94 660.56 70.58 660.56 73.03C660.56 75.95 660.56 79.33 658.29 80.66C657.68 81.02 656.93 81.06 656.24 81.06H651.12L651.11 81.05ZM655.08 78.88C657.55 78.88 657.71 77.58 657.71 73.29C657.71 69.79 657.35 68.41 655.69 68.41H653.87V78.88H655.08Z" fill="#231F20"/>
<path d="M86.6997 14.59C89.4597 16.59 92.3298 18.87 95.3098 21.45L90.4098 27.33C87.7598 24.75 85.0397 22.23 82.2397 19.76L86.7097 14.59H86.6997ZM88.3397 30.17C91.0597 31.4 93.2998 32.27 95.0398 32.78L90.1398 53.31C87.7398 52.4 85.3497 51.66 82.9497 51.08C84.7997 45.52 86.5997 38.55 88.3397 30.17ZM87.7898 0.540039C91.8898 3.48004 94.8697 5.71004 96.7197 7.24004L91.6498 12.74C89.0698 10.24 86.2798 7.75003 83.2598 5.28003L87.7798 0.540039H87.7898ZM110.12 37.36L115.46 40.63C114.26 42.57 112.89 44.61 111.35 46.73C112.29 46.88 113.52 46.97 115.03 47C116.63 46.78 117.44 46.04 117.48 44.77V36.16H107.84V13.12H113.69C114.34 11.61 114.91 10.05 115.41 8.44003H104.79V24.83C104.79 38.48 102.77 48.28 98.7397 54.24C96.4197 51.91 94.3597 50.17 92.5897 49.01C96.1097 43.78 97.8597 35.4 97.8197 23.85V2.34004H136V8.44003H122.58C122.14 9.51003 121.42 11.07 120.4 13.12H133.66V36.16H124.46V46.45C124.46 48.52 124.03 50.13 123.17 51.3C122.31 52.47 120.99 53.17 119.22 53.43C117.45 53.68 115.13 53.77 112.26 53.7C111.95 51.72 111.51 49.6 110.93 47.33C109.88 48.75 108.76 50.2 107.58 51.69L102.51 47.61C105.16 44.81 107.7 41.4 110.13 37.37L110.12 37.36ZM126.89 18.68H114.47V22.11H126.89V18.68ZM126.89 30.6V27.12H114.47V30.6H126.89ZM130.05 37.14C132.34 40.12 134.61 43.51 136.86 47.32L131.25 50.64C129.51 47.3 127.4 43.8 124.93 40.13L130.05 37.14Z" fill="#231F20"/>
<path d="M138.27 45.96H143.44V33.11C141.79 31.73 139.94 30.28 137.89 28.75C141.27 24.39 142.81 18.46 142.52 10.94V5.28H165.2C164.96 3.63 164.77 1.9 164.63 0.110001H171.82C171.93 1.93 172.08 3.65 172.28 5.28H177.24C176.55 3.94 175.89 2.74 175.25 1.69L181.18 0C182.05 1.41 183.04 3.18 184.15 5.28H190.55V11.16H182.38L186.68 14.1C184.19 17.22 181.55 20.05 178.76 22.6C179.99 23.96 181.03 24.64 181.86 24.64C182.41 24.64 182.89 24.35 183.32 23.76C183.75 23.17 184.43 20.99 185.38 17.21C187.99 18.45 190.12 19.35 191.75 19.93C189.93 28.08 186.78 32.15 182.3 32.15C180.94 32.15 179.41 31.73 177.71 30.89C176.01 30.05 174.48 28.8 173.12 27.15C170.94 28.71 168.69 30.12 166.37 31.37C165.24 29.48 164.06 27.72 162.83 26.09C165.28 24.78 167.58 23.38 169.75 21.87C168.3 18.88 167.12 15.31 166.21 11.17H149.33V14.87H163.6L163.22 23.77C163.11 25.48 162.56 26.86 161.56 27.91C160.56 28.96 159.07 29.57 157.09 29.72C155.11 29.88 153.25 29.93 151.51 29.9C151.15 28.23 150.64 26.36 149.99 24.29C152.13 24.4 153.59 24.45 154.37 24.45C155.44 24.45 156.15 24.21 156.49 23.73C156.84 23.25 157.01 22.11 157.01 20.31H148.92C148.25 24.89 146.71 28.93 144.32 32.45H186.8V45.95H192.14V52.05H138.28V45.95L138.27 45.96ZM150.63 45.96H155.64V38.34H150.63V45.96ZM162.61 45.96H167.62V38.34H162.61V45.96ZM181.27 11.16H173.32C173.88 13.5 174.57 15.58 175.39 17.4C177.55 15.46 179.51 13.38 181.27 11.16ZM179.61 38.34H174.6V45.96H179.61V38.34Z" fill="#231F20"/>
<path d="M218.38 0.10997L226.77 1.08998C226.41 2.90998 225.97 4.67998 225.46 6.42998H245.94V18.52H238.21V13.4H223.07C223 13.58 222.92 13.76 222.85 13.95C223.94 19.32 225.9 24.06 228.73 28.16C233.16 24.78 236.72 21.9 239.4 19.5L245.01 26.14C243.34 27.19 239.38 29.61 233.14 33.38C237.13 37.26 242.22 40.4 248.39 42.8C247.45 44.33 245.76 46.92 243.32 50.59C231.38 44.67 223.1 35.25 218.49 22.33C217.36 24.07 216.17 25.8 214.9 27.5V43.51C220.31 41.73 224.21 40.41 226.61 39.53C226.39 43.27 226.25 46.06 226.17 47.92C216.51 50.75 210.41 52.77 207.87 53.96L204.55 47.1C206.51 45.5 207.49 42.87 207.49 39.2V35.61C204.66 38.22 201.57 40.71 198.23 43.07C196.96 40.46 195.53 37.91 193.93 35.45C203.59 29.6 210.45 22.25 214.52 13.39H205.04V21.12H197.31V6.41997H217.02C217.6 4.38997 218.06 2.27998 218.38 0.0999756V0.10997Z" fill="#231F20"/>
<path d="M277.87 56.01C271.25 48.62 267.93 40 267.93 30.14C267.93 20.28 271.26 11.48 277.92 4.38H285.16C278.7 12.13 275.47 20.7 275.47 30.08C275.47 39.46 278.68 48.14 285.11 56H277.87V56.01Z" fill="#231F20"/>
<path d="M293.8 14.87C297.32 17.34 300.55 19.81 303.49 22.28L298.37 27.95C295.98 25.59 292.87 22.94 289.06 20L293.8 14.88V14.87ZM296.2 30.22C298.42 31.31 300.79 32.25 303.33 33.05C300.75 41.04 298.63 47.95 296.96 53.8C294.38 52.82 291.91 51.96 289.55 51.24C291.69 45.69 293.91 38.68 296.19 30.22H296.2ZM294.4 0.380005C297.85 2.52 301.26 4.85001 304.64 7.35001L299.79 12.91C297.07 10.51 293.76 7.95001 289.88 5.23001L294.4 0.380005ZM342.27 33.93H329.45C333.15 38.31 337.84 41.59 343.53 43.79C342.19 45.9 340.77 48.24 339.28 50.81C334.21 47.91 330.04 44.08 326.75 39.32V53.81H319.45V38.89C316.09 43.54 311.77 47.73 306.49 51.47C305.22 49.25 303.84 47.09 302.35 44.99C307.63 42.05 312.27 38.37 316.26 33.94H304.47V27.62H319.45V20.43H326.75V27.62H342.27V33.94V33.93ZM321.68 16.5C317.32 20.02 313.24 23.07 309.43 25.65L304.96 20.53C309.21 17.99 313.17 15.1 316.83 11.87L321.68 16.5ZM305.13 14.87V2.94H341.13V14.87H334.11V9.26001H312.16V14.87H305.13ZM324.73 16.5L329.25 11.93C333.83 15.09 337.86 17.99 341.34 20.64L336.71 25.76C332.75 22.49 328.76 19.41 324.73 16.5Z" fill="#231F20"/>
<path d="M346.57 45.3599L344.88 37.2999C346.88 36.8999 348.87 36.4599 350.87 35.9899V19.3199H345.7V12.3499H350.87V0.699951H358.11V12.3499H363.45V19.3199H358.11V34.1899C359.81 33.6799 361.52 33.1699 363.23 32.6599C363.27 34.6199 363.36 36.9099 363.5 39.5199C364.81 36.0399 365.46 32.1999 365.46 28.0299V1.12994H372.7V28.6299C372.7 39.4099 369.78 47.9799 363.93 54.3299C361.43 52.2599 359.23 50.6499 357.34 49.4799C359.85 46.8299 361.77 43.8699 363.11 40.5999C357.41 42.1999 351.89 43.78 346.55 45.34L346.57 45.3599ZM377.72 3.15994H384.74V50.2699H377.72V3.15994ZM389.76 1.08995H397V53.4799H389.76V1.08995Z" fill="#231F20"/>
<path d="M410.26 56.01H403.02C409.48 48.31 412.71 39.74 412.71 30.3C412.71 20.86 409.5 12.28 403.07 4.38H410.31C416.93 11.73 420.25 20.37 420.25 30.3C420.25 40.23 416.92 48.96 410.26 56.01Z" fill="#231F20"/>
<path d="M445.02 53.48V2.29004H494.58V53.43H486.79V51.52H452.81V53.48H445.02ZM486.79 8.98004H452.81V44.81H486.79V8.98004ZM483.74 28.7H479.68C481.19 30.01 482.7 31.4 484.23 32.89L481.34 35.5H485.04V41.87H454.27V35.5H465.38V28.69H455.69V22.32H465.38V18.45H454.82V12.08H484.5V18.45H472.68V22.32H483.73V28.69L483.74 28.7ZM474.21 31.42L477.37 28.7H472.69V35.51H478.03C476.59 33.87 475.33 32.51 474.22 31.43L474.21 31.42Z" fill="#231F20"/>
<path d="M514.18 22.4901C517.3 26.0501 518.86 30.44 518.86 35.67C518.86 38.88 518.04 41.17 516.38 42.53C514.72 43.89 512.23 44.6201 508.89 44.7101C508.6 41.7301 508.13 39.0501 507.47 36.6501C508.2 36.7601 508.85 36.8101 509.43 36.8101C511.43 36.8101 512.42 35.9401 512.42 34.2001C512.42 30.6401 510.8 27.0101 507.57 23.3101C509.17 18.2301 510.53 13.4201 511.65 8.88005H507.29V54.0201H500.54V2.56006H518.73V7.79005C517.49 12.0401 515.97 16.9401 514.15 22.4901H514.18ZM523.55 27.66L529.87 29.4601C527.96 35.5801 525.97 41.1101 523.91 46.0701C525.56 46.2501 527.21 46.3401 528.84 46.3401C530.98 46.3401 532.05 45.2501 532.05 43.0701V23.9001H519.36V16.8201H551.93V23.9001H539.46V46.0601C539.46 48.0601 539.06 49.6501 538.25 50.8401C537.44 52.0301 536.35 52.7801 534.96 53.1001C533.57 53.4201 530.37 53.58 525.36 53.58C524.92 50.88 524.43 48.4001 523.89 46.1501L523.24 47.7001C521.1 46.6801 518.99 45.8101 516.92 45.0901C519.31 40.1901 521.53 34.38 523.56 27.66H523.55ZM521.59 3.21005H549.91V10.2901H521.59V3.21005ZM546.8 27.83C548.8 32.7 550.94 38.4501 553.22 45.0901L546.69 47.6001C544.66 41.2101 542.59 35.3801 540.48 30.1201L546.8 27.83Z" fill="#231F20"/>
<path d="M578.12 34.58H585.96C585.67 36.79 585.18 38.7901 584.49 40.5701C590.48 42.1701 598.01 44.35 607.09 47.11L603.39 54.1301C598.56 52.2801 591.08 49.7201 580.95 46.4501C577.1 50.6301 569.53 53.2001 558.24 54.1801C557.33 52.1101 556.1 49.62 554.54 46.72C562.64 46.25 568.53 45.1401 572.24 43.4001C575.76 41.7301 577.72 38.79 578.12 34.58ZM557.86 3.27005C564.18 2.76005 570.64 1.69006 577.25 0.0600586L579.32 5.78004C573.84 7.19004 569.03 8.21005 564.89 8.83005V16.94C567.07 16.47 569.47 15.98 572.08 15.47C571.39 14.09 570.66 12.68 569.9 11.22L575.35 8.33005C577.45 12.14 579.23 15.4601 580.69 18.2901C583.59 15.9701 585.07 12.7901 585.1 8.76006H580.74V2.82005H605.63C605.56 6.01005 605.39 9.90005 605.14 14.47C604.81 20.61 602.18 23.6901 597.24 23.7301C594.44 23.7701 592.63 23.7701 591.79 23.7301C591.57 22.3501 591.21 20.0101 590.7 16.7101C592.63 16.8601 594.29 16.9501 595.71 16.9801C597.34 16.9801 598.21 15.8601 598.32 13.6001C598.47 11.7801 598.54 10.17 598.54 8.75005H591.95C591.95 15.17 589.17 20.6201 583.62 25.0901C582.6 24.0701 581.48 23.0201 580.24 21.9301L576.21 24.05C575.77 23.14 575.34 22.2201 574.9 21.2701C566.11 22.7201 560.78 24.2101 558.89 25.7401L555.79 19.97C557.02 19.03 557.71 17.9501 557.86 16.7601V3.25005V3.27005ZM560.91 42.42V26.4601H602.19V41.8201H594.57V33H568.54V42.42H560.92H560.91Z" fill="#231F20"/>
<path d="M616.24 1.90002H658.5V25.54H630.32C629.65 26.54 628.94 27.5 628.19 28.43H661.76L660.81 43.49C660.59 46.52 659.92 48.8 658.78 50.34C657.65 51.87 656.47 52.78 655.26 53.06C654.04 53.34 650.62 53.48 644.99 53.48C644.5 51.19 643.85 48.76 643.03 46.18C640.31 49.25 637.09 51.9 633.39 54.13C631.61 52.75 629.43 51.24 626.85 49.61C634.44 45.49 639.54 40.48 642.15 34.58H636.79C632.61 42 625.4 47.92 615.14 52.33C613.83 50.77 612.05 48.94 609.8 46.83C618.49 43.47 624.51 39.39 627.85 34.58H622.43C620.25 36.56 617.89 38.37 615.35 40.03C614.11 38.72 612.34 37.02 610.01 34.91C614.64 32.57 618.57 29.45 621.8 25.54H616.22V1.90002H616.24ZM650.93 7.95003H623.81V11.16H650.93V7.95003ZM650.93 19.5V16.29H623.81V19.5H650.93ZM643.33 45.85C645.26 46.09 647.1 46.2 648.86 46.2C650.11 46.2 650.96 46.09 651.42 45.86C651.88 45.63 652.26 45.24 652.58 44.69C652.9 44.14 653.17 42.77 653.38 40.61C653.6 38.44 653.74 36.43 653.82 34.58H650.2C648.46 38.81 646.17 42.57 643.34 45.85H643.33Z" fill="#231F20"/>
<path d="M22.4963 51.8993L6.61423 36.0173C7.42995 32.8035 8.92383 29.8649 10.9386 27.3588L6.742 23.1622C3.21374 27.349 0.874654 32.5676 0.20635 38.2875L4.52086 42.602L21.6805 59.7617V66.8281L13.936 59.0836C10.7026 56.3219 8.25548 52.6856 6.95818 48.5283L0 41.5701C0 41.6192 0 41.6684 0 41.7175C0 50.4841 3.9214 58.3268 10.1032 63.6045L21.6805 75.1819L27.4987 81V43.2998L22.5061 38.3072V51.8993H22.4963Z" fill="url(#paint0_linear_2369_255)"/>
<path d="M30.8205 38.9852L46.2897 23.516L48.7763 21.0197L37.3463 9.5995L33.1694 13.7764L21.1104 25.8452L16.6878 21.4226L28.7566 9.3538L32.9335 5.1769L28.7566 1L12.5109 17.2457L9.1792 20.5676L13.3659 24.7445L21.651 33.0295L23.2627 31.4275L37.0416 17.6388L40.7271 21.3341L28.6681 33.4029L25.3365 36.7248L29.2087 40.597L30.8205 38.9852Z" fill="url(#paint1_linear_2369_255)"/>
<path d="M52.3045 25.1473L52.275 24.9311L50.8598 23.5159L30.2603 44.1154V80.7542L36.0785 74.936V45.6682L49.5526 32.194C50.8696 35.0933 51.6068 38.307 51.6068 41.6977C51.6068 48.6559 48.4912 54.8869 43.5772 59.0834L38.7713 63.8893V72.2431L47.4102 63.6043C53.592 58.3267 57.5134 50.4839 57.5134 41.7173C57.5134 35.5552 55.5871 29.8353 52.3045 25.1473Z" fill="url(#paint2_linear_2369_255)"/>
<defs>
<linearGradient id="paint0_linear_2369_255" x1="14.742" y1="14.1401" x2="13.0614" y2="93.1474" gradientUnits="userSpaceOnUse">
<stop offset="0.11" stop-color="#749B3E"/>
<stop offset="1" stop-color="#006838"/>
</linearGradient>
<linearGradient id="paint1_linear_2369_255" x1="29.7394" y1="44.9508" x2="28.619" y2="9.46191" gradientUnits="userSpaceOnUse">
<stop offset="0.11" stop-color="#6F000A"/>
<stop offset="1" stop-color="#ED1C24"/>
</linearGradient>
<linearGradient id="paint2_linear_2369_255" x1="40.7075" y1="68.361" x2="45.5625" y2="31.0048" gradientUnits="userSpaceOnUse">
<stop offset="0.11" stop-color="#27AAE1"/>
<stop offset="1" stop-color="#2E3192"/>
</linearGradient>
</defs>
</svg>
