<svg width="676" height="106" viewBox="0 0 676 106" fill="none" xmlns="http://www.w3.org/2000/svg">
<path d="M102.2 85.1201C102.5 85.8501 102.73 86.6001 102.85 87.3901H102.89C103.09 86.2401 103.46 85.4101 103.8 84.5801L105.12 81.2201H108.14L104.23 89.7401V96.0401H101.46V89.7401L97.6099 81.2201H100.63L102.19 85.1101L102.2 85.1201Z" fill="#231F20"/>
<path d="M116.35 81.2301H119.12V91.5601C119.12 94.8401 118.05 96.4001 114.44 96.4001C110.83 96.4001 109.72 94.8401 109.72 91.5601V81.2301H112.49V91.3301C112.49 92.7501 112.59 94.1801 114.47 94.1801C116.35 94.1801 116.37 92.7601 116.37 91.3301V81.2301H116.35Z" fill="#231F20"/>
<path d="M120.63 96.0501L124.17 81.2301H127.9L131.26 96.0501H128.3L127.57 92.3001H124.33L123.6 96.0501H120.64H120.63ZM124.76 90.1201H127.13L126.38 85.9101C126.24 85.2201 126.18 84.5501 126.1 83.8501C126.08 83.5101 126.04 83.1801 126 82.8601H125.96C125.92 83.1801 125.88 83.5101 125.86 83.8501C125.78 84.5401 125.72 85.2101 125.58 85.9101L124.75 90.1201H124.76Z" fill="#231F20"/>
<path d="M139.4 81.2301H142.17V96.0501H139.29L137.14 90.7701C136.41 89.0101 135.82 87.2101 135.16 84.8801H135.12C135.22 86.1001 135.34 87.6101 135.42 89.1101C135.5 90.5901 135.56 92.0701 135.56 93.2601V96.0501H132.79V81.2301H135.66L137.81 86.6201C138.52 88.3401 139.11 90.1001 139.79 92.5101H139.83C139.73 91.1701 139.63 89.7201 139.55 88.3001C139.47 86.8801 139.41 85.4501 139.41 84.1301V81.2201L139.4 81.2301Z" fill="#231F20"/>
<path d="M155.45 85.7401C155.47 84.4201 155.35 83.1101 153.83 83.1101C152.9 83.1101 152.31 83.4901 152.31 84.4901C152.31 85.6201 153.02 86.0501 153.89 86.6001C154.8 87.1701 156.48 88.2801 157.25 89.0301C158.2 89.9601 158.5 90.8501 158.5 92.1301C158.5 94.9401 156.64 96.4001 153.94 96.4001C150.62 96.4001 149.43 94.5401 149.43 91.9001V90.8101H152.2V91.6801C152.14 93.1201 152.58 94.1701 153.94 94.1701C155.11 94.1701 155.66 93.5601 155.66 92.4301C155.66 91.5601 155.27 90.9701 154.55 90.4701C153.11 89.3401 151.31 88.5301 150.18 87.0501C149.73 86.3801 149.47 85.5701 149.47 84.7801C149.47 82.2501 150.89 80.8701 153.82 80.8701C158.23 80.8701 158.11 84.2701 158.13 85.7301H155.46L155.45 85.7401Z" fill="#231F20"/>
<path d="M160.79 96.0501V81.2301H163.56V87.1001H167.43V81.2301H170.2V96.0501H167.43V89.2701H163.56V96.0501H160.79Z" fill="#231F20"/>
<path d="M172.79 96.0501V81.2301H180.58V83.4001H175.56V87.1301H180.18V89.3001H175.56V93.8601H180.58V96.0301H172.79V96.0501Z" fill="#231F20"/>
<path d="M189.37 81.2301H192.14V96.0501H189.26L187.11 90.7701C186.38 89.0101 185.79 87.2101 185.13 84.8801H185.09C185.19 86.1001 185.31 87.6101 185.39 89.1101C185.47 90.5901 185.53 92.0701 185.53 93.2601V96.0501H182.76V81.2301H185.63L187.78 86.6201C188.49 88.3401 189.08 90.1001 189.76 92.5101H189.8C189.7 91.1701 189.6 89.7201 189.52 88.3001C189.44 86.8801 189.38 85.4501 189.38 84.1301V81.2201L189.37 81.2301Z" fill="#231F20"/>
<path d="M194.57 87.4501C194.69 83.6801 194.99 80.8701 199.41 80.8701C201.78 80.8901 203.42 81.5001 204.05 84.0701C204.19 84.6601 204.17 85.2801 204.19 85.8701H201.42C201.38 84.3701 201.28 83.1801 199.4 83.1001C197.23 83.1001 197.4 85.6901 197.4 86.8401V90.9501C197.4 92.1701 197.5 94.1701 199.4 94.1701C200.98 94.1701 201.49 92.4901 201.44 90.2601H199.52V88.0901H204.12V96.0501H202.05V94.3501H202.01C201.46 95.8901 200.41 96.3301 199.4 96.4001C194.86 96.4001 194.56 93.5201 194.56 89.5601V87.4501H194.57Z" fill="#231F20"/>
<path d="M218.47 81.2301H221.24V96.0501H218.36L216.21 90.7701C215.48 89.0101 214.89 87.2101 214.23 84.8801H214.19C214.29 86.1001 214.41 87.6101 214.49 89.1101C214.57 90.5901 214.63 92.0701 214.63 93.2601V96.0501H211.86V81.2301H214.73L216.88 86.6201C217.59 88.3401 218.18 90.1001 218.86 92.5101H218.9C218.8 91.1701 218.7 89.7201 218.62 88.3001C218.54 86.8801 218.48 85.4501 218.48 84.1301V81.2201L218.47 81.2301Z" fill="#231F20"/>
<path d="M223.79 87.4501C223.91 83.6801 224.21 80.8701 228.63 80.8701C233.05 80.8701 233.35 83.6801 233.47 87.4501V89.5601C233.47 93.5101 233.17 96.4001 228.63 96.4001C224.09 96.4001 223.79 93.5201 223.79 89.5601V87.4501ZM226.63 90.9501C226.63 92.1701 226.73 94.1701 228.63 94.1701C230.53 94.1701 230.63 92.1301 230.63 90.7101V86.9201C230.63 85.7301 230.69 83.1101 228.63 83.1101C226.46 83.1101 226.63 85.7001 226.63 86.8501V90.9601V90.9501Z" fill="#231F20"/>
<path d="M242.62 81.2301H245.39V96.0501H242.51L240.36 90.7701C239.63 89.0101 239.04 87.2101 238.38 84.8801H238.34C238.44 86.1001 238.56 87.6101 238.64 89.1101C238.72 90.5901 238.78 92.0701 238.78 93.2601V96.0501H236.01V81.2301H238.88L241.03 86.6201C241.74 88.3401 242.33 90.1001 243.01 92.5101H243.05C242.95 91.1701 242.85 89.7201 242.77 88.3001C242.69 86.8801 242.63 85.4501 242.63 84.1301V81.2201L242.62 81.2301Z" fill="#231F20"/>
<path d="M247.82 87.4501C247.94 83.6801 248.24 80.8701 252.66 80.8701C255.03 80.8901 256.67 81.5001 257.3 84.0701C257.44 84.6601 257.42 85.2801 257.44 85.8701H254.67C254.63 84.3701 254.53 83.1801 252.65 83.1001C250.48 83.1001 250.65 85.6901 250.65 86.8401V90.9501C250.65 92.1701 250.75 94.1701 252.65 94.1701C254.23 94.1701 254.74 92.4901 254.69 90.2601H252.77V88.0901H257.37V96.0501H255.3V94.3501H255.26C254.71 95.8901 253.66 96.3301 252.65 96.4001C248.11 96.4001 247.81 93.5201 247.81 89.5601V87.4501H247.82Z" fill="#231F20"/>
<path d="M269.27 80.8701C268.08 83.2001 267.39 85.4901 267.39 90.8501C267.39 94.4701 267.81 96.6801 269.31 99.9601H267.67C265.56 96.3601 264.79 94.2701 264.79 90.0401C264.79 86.6001 265.64 83.6601 267.67 80.8701H269.27Z" fill="#231F20"/>
<path d="M277.33 85.7401C277.35 84.4201 277.23 83.1101 275.71 83.1101C274.78 83.1101 274.19 83.4901 274.19 84.4901C274.19 85.6201 274.9 86.0501 275.77 86.6001C276.68 87.1701 278.36 88.2801 279.13 89.0301C280.08 89.9601 280.38 90.8501 280.38 92.1301C280.38 94.9401 278.52 96.4001 275.82 96.4001C272.5 96.4001 271.31 94.5401 271.31 91.9001V90.8101H274.08V91.6801C274.02 93.1201 274.46 94.1701 275.82 94.1701C276.99 94.1701 277.54 93.5601 277.54 92.4301C277.54 91.5601 277.15 90.9701 276.43 90.4701C274.99 89.3401 273.19 88.5301 272.06 87.0501C271.61 86.3801 271.35 85.5701 271.35 84.7801C271.35 82.2501 272.77 80.8701 275.7 80.8701C280.11 80.8701 279.99 84.2701 280.01 85.7301H277.34L277.33 85.7401Z" fill="#231F20"/>
<path d="M282.67 96.0501V81.2301H285.44V87.1001H289.31V81.2301H292.08V96.0501H289.31V89.2701H285.44V96.0501H282.67Z" fill="#231F20"/>
<path d="M294.67 96.0501V81.2301H302.46V83.4001H297.44V87.1301H302.06V89.3001H297.44V93.8601H302.46V96.0301H294.67V96.0501Z" fill="#231F20"/>
<path d="M311.25 81.2301H314.02V96.0501H311.14L308.99 90.7701C308.26 89.0101 307.67 87.2101 307.01 84.8801H306.97C307.07 86.1001 307.19 87.6101 307.27 89.1101C307.35 90.5901 307.41 92.0701 307.41 93.2601V96.0501H304.64V81.2301H307.51L309.66 86.6201C310.37 88.3401 310.96 90.1001 311.64 92.5101H311.68C311.58 91.1701 311.48 89.7201 311.4 88.3001C311.32 86.8801 311.26 85.4501 311.26 84.1301V81.2201L311.25 81.2301Z" fill="#231F20"/>
<path d="M316.02 93.8401L320.78 84.6501C321.02 84.2201 321.21 83.7601 321.55 83.3501C321.19 83.4101 320.84 83.4101 320.48 83.4101H316.33V81.2401H324.43V83.4501L319.67 92.6401C319.43 93.0801 319.24 93.5301 318.9 93.9401C319.26 93.8801 319.61 93.8801 319.97 93.8801H324.61V96.0501H316.01V93.8401H316.02Z" fill="#231F20"/>
<path d="M326.59 96.0501V81.2301H329.36V87.1001H333.23V81.2301H336V96.0501H333.23V89.2701H329.36V96.0501H326.59Z" fill="#231F20"/>
<path d="M338.59 96.0501V81.2301H346.38V83.4001H341.36V87.1301H345.98V89.3001H341.36V93.8601H346.38V96.0301H338.59V96.0501Z" fill="#231F20"/>
<path d="M355.17 81.2301H357.94V96.0501H355.06L352.91 90.7701C352.18 89.0101 351.59 87.2101 350.93 84.8801H350.89C350.99 86.1001 351.11 87.6101 351.19 89.1101C351.27 90.5901 351.33 92.0701 351.33 93.2601V96.0501H348.56V81.2301H351.43L353.58 86.6201C354.29 88.3401 354.88 90.1001 355.56 92.5101H355.6C355.5 91.1701 355.4 89.7201 355.32 88.3001C355.24 86.8801 355.18 85.4501 355.18 84.1301V81.2201L355.17 81.2301Z" fill="#231F20"/>
<path d="M360.35 99.9601C361.54 97.6301 362.23 95.3401 362.23 89.9801C362.23 86.3601 361.81 84.1501 360.31 80.8701H361.95C364.06 84.4701 364.83 86.5601 364.83 90.7901C364.83 94.2301 363.98 97.1701 361.95 99.9601H360.35Z" fill="#231F20"/>
<path d="M372.17 96.0501V81.2301H374.94V96.0501H372.17Z" fill="#231F20"/>
<path d="M384.27 81.2301H387.04V96.0501H384.16L382.01 90.7701C381.28 89.0101 380.69 87.2101 380.03 84.8801H379.99C380.09 86.1001 380.21 87.6101 380.29 89.1101C380.37 90.5901 380.43 92.0701 380.43 93.2601V96.0501H377.66V81.2301H380.53L382.68 86.6201C383.39 88.3401 383.98 90.1001 384.66 92.5101H384.7C384.6 91.1701 384.5 89.7201 384.42 88.3001C384.34 86.8801 384.28 85.4501 384.28 84.1301V81.2201L384.27 81.2301Z" fill="#231F20"/>
<path d="M388.72 81.2301H397.95V83.4001H394.73V96.0501H391.96V83.4001H388.72V81.2301Z" fill="#231F20"/>
<path d="M399.53 96.0501V81.2301H407.32V83.4001H402.3V87.1301H406.92V89.3001H402.3V93.8601H407.32V96.0301H399.53V96.0501Z" fill="#231F20"/>
<path d="M412.22 89.6701V96.0501H409.45V81.2301H414.69C417.08 81.2301 418.9 82.0601 418.9 84.7901C418.9 86.4101 418.48 88.1101 416.63 88.3701V88.4101C418.27 88.6301 418.76 89.6701 418.76 91.1001C418.76 91.7101 418.68 95.3501 419.35 95.7801V96.0601H416.31C415.97 95.1101 416.03 93.2901 416.01 92.3101C415.99 91.4001 416.01 90.1601 415.06 89.8801C414.31 89.6601 413.5 89.6801 412.71 89.6801H412.22V89.6701ZM412.22 87.4901H414.39C415.3 87.4301 416.01 86.8401 416.01 85.3601C416.01 83.7001 415.32 83.4201 414.27 83.4001H412.21V87.4901H412.22Z" fill="#231F20"/>
<path d="M428.19 81.2301H430.96V96.0501H428.08L425.93 90.7701C425.2 89.0101 424.61 87.2101 423.95 84.8801H423.91C424.01 86.1001 424.13 87.6101 424.21 89.1101C424.29 90.5901 424.35 92.0701 424.35 93.2601V96.0501H421.58V81.2301H424.45L426.6 86.6201C427.31 88.3401 427.9 90.1001 428.58 92.5101H428.62C428.52 91.1701 428.42 89.7201 428.34 88.3001C428.26 86.8801 428.2 85.4501 428.2 84.1301V81.2201L428.19 81.2301Z" fill="#231F20"/>
<path d="M432.48 96.0501L436.02 81.2301H439.75L443.11 96.0501H440.15L439.42 92.3001H436.18L435.45 96.0501H432.49H432.48ZM436.61 90.1201H438.98L438.23 85.9101C438.09 85.2201 438.03 84.5501 437.95 83.8501C437.93 83.5101 437.89 83.1801 437.85 82.8601H437.81C437.77 83.1801 437.73 83.5101 437.71 83.8501C437.63 84.5401 437.57 85.2101 437.43 85.9101L436.6 90.1201H436.61Z" fill="#231F20"/>
<path d="M442.54 81.2301H451.77V83.4001H448.55V96.0501H445.78V83.4001H442.54V81.2301Z" fill="#231F20"/>
<path d="M453.45 96.0501V81.2301H456.22V96.0501H453.45Z" fill="#231F20"/>
<path d="M458.79 87.4501C458.91 83.6801 459.21 80.8701 463.63 80.8701C468.05 80.8701 468.35 83.6801 468.47 87.4501V89.5601C468.47 93.5101 468.17 96.4001 463.63 96.4001C459.09 96.4001 458.79 93.5201 458.79 89.5601V87.4501ZM461.63 90.9501C461.63 92.1701 461.73 94.1701 463.63 94.1701C465.53 94.1701 465.63 92.1301 465.63 90.7101V86.9201C465.63 85.7301 465.69 83.1101 463.63 83.1101C461.46 83.1101 461.63 85.7001 461.63 86.8501V90.9601V90.9501Z" fill="#231F20"/>
<path d="M477.62 81.2301H480.39V96.0501H477.51L475.36 90.7701C474.63 89.0101 474.04 87.2101 473.38 84.8801H473.34C473.44 86.1001 473.56 87.6101 473.64 89.1101C473.72 90.5901 473.78 92.0701 473.78 93.2601V96.0501H471.01V81.2301H473.88L476.03 86.6201C476.74 88.3401 477.33 90.1001 478.01 92.5101H478.05C477.95 91.1701 477.85 89.7201 477.77 88.3001C477.69 86.8801 477.63 85.4501 477.63 84.1301V81.2201L477.62 81.2301Z" fill="#231F20"/>
<path d="M481.92 96.0501L485.46 81.2301H489.19L492.55 96.0501H489.59L488.86 92.3001H485.62L484.89 96.0501H481.93H481.92ZM486.04 90.1201H488.41L487.66 85.9101C487.52 85.2201 487.46 84.5501 487.38 83.8501C487.36 83.5101 487.32 83.1801 487.28 82.8601H487.24C487.2 83.1801 487.16 83.5101 487.14 83.8501C487.06 84.5401 487 85.2101 486.86 85.9101L486.03 90.1201H486.04Z" fill="#231F20"/>
<path d="M494.07 96.0501V81.2301H496.84V93.8801H501.98V96.0501H494.08H494.07Z" fill="#231F20"/>
<path d="M517.67 90.7701C517.65 91.0501 517.63 91.3401 517.61 91.6201C517.47 94.3301 516.56 96.4001 513.48 96.4001C508.94 96.4001 508.64 93.5201 508.64 89.5601V87.4501C508.76 83.6801 509.06 80.8701 513.48 80.8701C515.95 80.9101 517.33 82.1701 517.53 84.7001C517.57 85.0801 517.61 85.4501 517.59 85.8301H514.86C514.74 84.8801 514.84 83.1001 513.48 83.1001C511.31 83.1001 511.48 85.6901 511.48 86.8401V90.9501C511.48 92.1701 511.58 94.1701 513.48 94.1701C515 94.1701 514.82 91.7201 514.88 90.7701H517.67Z" fill="#231F20"/>
<path d="M519.75 87.4501C519.87 83.6801 520.17 80.8701 524.59 80.8701C529.01 80.8701 529.31 83.6801 529.43 87.4501V89.5601C529.43 93.5101 529.13 96.4001 524.59 96.4001C520.05 96.4001 519.75 93.5201 519.75 89.5601V87.4501ZM522.59 90.9501C522.59 92.1701 522.69 94.1701 524.59 94.1701C526.49 94.1701 526.59 92.1301 526.59 90.7101V86.9201C526.59 85.7301 526.65 83.1101 524.59 83.1101C522.42 83.1101 522.59 85.7001 522.59 86.8501V90.9601V90.9501Z" fill="#231F20"/>
<path d="M534.71 96.0501H531.94V81.2301H536.35L537.83 88.1101C538.07 89.2401 538.22 90.3801 538.34 91.5301H538.38C538.52 90.0701 538.62 89.0801 538.81 88.1101L540.29 81.2301H544.68V96.0501H541.91V91.3901C541.91 88.4501 541.97 85.5001 542.15 82.5601H542.11L539.15 96.0601H537.47L534.57 82.5601H534.47C534.65 85.5001 534.71 88.4501 534.71 91.3901V96.0501Z" fill="#231F20"/>
<path d="M550.09 96.0501H547.32V81.2301H551.73L553.21 88.1101C553.45 89.2401 553.6 90.3801 553.72 91.5301H553.76C553.9 90.0701 554 89.0801 554.19 88.1101L555.67 81.2301H560.06V96.0501H557.29V91.3901C557.29 88.4501 557.35 85.5001 557.53 82.5601H557.49L554.53 96.0601H552.85L549.95 82.5601H549.85C550.03 85.5001 550.09 88.4501 550.09 91.3901V96.0501Z" fill="#231F20"/>
<path d="M562.64 96.0501V81.2301H570.43V83.4001H565.41V87.1301H570.03V89.3001H565.41V93.8601H570.43V96.0301H562.64V96.0501Z" fill="#231F20"/>
<path d="M575.33 89.6701V96.0501H572.56V81.2301H577.8C580.19 81.2301 582.01 82.0601 582.01 84.7901C582.01 86.4101 581.6 88.1101 579.74 88.3701V88.4101C581.38 88.6301 581.87 89.6701 581.87 91.1001C581.87 91.7101 581.79 95.3501 582.46 95.7801V96.0601H579.42C579.08 95.1101 579.14 93.2901 579.12 92.3101C579.1 91.4001 579.12 90.1601 578.17 89.8801C577.42 89.6601 576.61 89.6801 575.82 89.6801H575.33V89.6701ZM575.33 87.4901H577.5C578.41 87.4301 579.12 86.8401 579.12 85.3601C579.12 83.7001 578.43 83.4201 577.38 83.4001H575.32V87.4901H575.33Z" fill="#231F20"/>
<path d="M593.45 90.7701C593.43 91.0501 593.41 91.3401 593.39 91.6201C593.25 94.3301 592.34 96.4001 589.26 96.4001C584.72 96.4001 584.42 93.5201 584.42 89.5601V87.4501C584.54 83.6801 584.84 80.8701 589.26 80.8701C591.73 80.9101 593.11 82.1701 593.31 84.7001C593.35 85.0801 593.39 85.4501 593.37 85.8301H590.64C590.52 84.8801 590.62 83.1001 589.26 83.1001C587.09 83.1001 587.26 85.6901 587.26 86.8401V90.9501C587.26 92.1701 587.36 94.1701 589.26 94.1701C590.78 94.1701 590.6 91.7201 590.66 90.7701H593.45Z" fill="#231F20"/>
<path d="M595.59 96.0501V81.2301H603.38V83.4001H598.36V87.1301H602.98V89.3001H598.36V93.8601H603.38V96.0301H595.59V96.0501Z" fill="#231F20"/>
<path d="M619.27 90.7701C619.25 91.0501 619.23 91.3401 619.21 91.6201C619.07 94.3301 618.16 96.4001 615.08 96.4001C610.54 96.4001 610.24 93.5201 610.24 89.5601V87.4501C610.36 83.6801 610.66 80.8701 615.08 80.8701C617.55 80.9101 618.93 82.1701 619.13 84.7001C619.17 85.0801 619.21 85.4501 619.19 85.8301H616.46C616.34 84.8801 616.44 83.1001 615.08 83.1001C612.91 83.1001 613.08 85.6901 613.08 86.8401V90.9501C613.08 92.1701 613.18 94.1701 615.08 94.1701C616.6 94.1701 616.42 91.7201 616.48 90.7701H619.27Z" fill="#231F20"/>
<path d="M621.35 87.4501C621.47 83.6801 621.77 80.8701 626.19 80.8701C630.61 80.8701 630.91 83.6801 631.03 87.4501V89.5601C631.03 93.5101 630.73 96.4001 626.19 96.4001C621.65 96.4001 621.35 93.5201 621.35 89.5601V87.4501ZM624.19 90.9501C624.19 92.1701 624.29 94.1701 626.19 94.1701C628.09 94.1701 628.19 92.1301 628.19 90.7101V86.9201C628.19 85.7301 628.25 83.1101 626.19 83.1101C624.02 83.1101 624.19 85.7001 624.19 86.8501V90.9601V90.9501Z" fill="#231F20"/>
<path d="M634.21 96.0501V93.4401H636.82V96.0501H634.21Z" fill="#231F20"/>
<path d="M640.8 98.0501C641.73 97.9501 642.24 97.1201 642.18 96.0501H640.8V93.4401H643.41V95.9901C643.41 97.6701 642.54 98.7001 640.8 98.9101V98.0401V98.0501Z" fill="#231F20"/>
<path d="M646.73 96.0501V81.2301H649.5V93.8801H654.64V96.0501H646.74H646.73Z" fill="#231F20"/>
<path d="M654.14 81.2301H663.37V83.4001H660.15V96.0501H657.38V83.4001H654.14V81.2301Z" fill="#231F20"/>
<path d="M665.11 96.0501V81.2301H670.88C671.55 81.2301 672.9 81.5301 673.75 82.9101C674.38 83.9401 674.56 85.5801 674.56 88.0301C674.56 90.9501 674.56 94.3301 672.29 95.6601C671.68 96.0201 670.93 96.0601 670.24 96.0601H665.12L665.11 96.0501ZM669.08 93.8801C671.55 93.8801 671.71 92.5801 671.71 88.2901C671.71 84.7901 671.35 83.4101 669.69 83.4101H667.87V93.8801H669.08Z" fill="#231F20"/>
<path d="M100.7 29.5902C103.46 31.5902 106.33 33.8702 109.31 36.4502L104.41 42.3302C101.76 39.7502 99.0397 37.2302 96.2397 34.7602L100.71 29.5902H100.7ZM102.34 45.1702C105.06 46.4002 107.3 47.2702 109.04 47.7802L104.14 68.3102C101.74 67.4002 99.3497 66.6602 96.9497 66.0802C98.7997 60.5202 100.6 53.5502 102.34 45.1702ZM101.79 15.5402C105.89 18.4802 108.87 20.7102 110.72 22.2402L105.65 27.7402C103.07 25.2402 100.28 22.7502 97.2598 20.2802L101.78 15.5402H101.79ZM124.12 52.3602L129.46 55.6302C128.26 57.5702 126.89 59.6102 125.35 61.7302C126.29 61.8802 127.52 61.9702 129.03 62.0002C130.63 61.7802 131.44 61.0402 131.48 59.7702V51.1602H121.84V28.1202H127.69C128.34 26.6102 128.91 25.0502 129.41 23.4402H118.79V39.8302C118.79 53.4802 116.77 63.2802 112.74 69.2402C110.42 66.9102 108.36 65.1702 106.59 64.0102C110.11 58.7802 111.86 50.4002 111.82 38.8502V17.3402H150V23.4402H136.58C136.14 24.5102 135.42 26.0702 134.4 28.1202H147.66V51.1602H138.46V61.4502C138.46 63.5202 138.03 65.1302 137.17 66.3002C136.31 67.4702 134.99 68.1702 133.22 68.4302C131.45 68.6802 129.13 68.7702 126.26 68.7002C125.95 66.7202 125.51 64.6002 124.93 62.3302C123.88 63.7502 122.76 65.2002 121.58 66.6902L116.51 62.6102C119.16 59.8102 121.7 56.4002 124.13 52.3702L124.12 52.3602ZM140.89 33.6802H128.47V37.1102H140.89V33.6802ZM140.89 45.6002V42.1202H128.47V45.6002H140.89ZM144.05 52.1402C146.34 55.1202 148.61 58.5102 150.86 62.3202L145.25 65.6402C143.51 62.3002 141.4 58.8002 138.93 55.1302L144.05 52.1402Z" fill="#231F20"/>
<path d="M152.27 60.9601H157.44V48.1101C155.79 46.7301 153.94 45.2801 151.89 43.7501C155.27 39.3901 156.81 33.4601 156.52 25.9401V20.2801H179.2C178.96 18.6301 178.77 16.9001 178.63 15.1101H185.82C185.93 16.9301 186.08 18.6501 186.28 20.2801H191.24C190.55 18.9401 189.89 17.7401 189.25 16.6901L195.18 15.0001C196.05 16.4101 197.04 18.1801 198.15 20.2801H204.55V26.1601H196.38L200.68 29.1001C198.19 32.2201 195.55 35.0501 192.76 37.6001C193.99 38.9601 195.03 39.6401 195.86 39.6401C196.41 39.6401 196.89 39.3501 197.32 38.7601C197.75 38.1701 198.43 35.9901 199.38 32.2101C201.99 33.4501 204.12 34.3501 205.75 34.9301C203.93 43.0801 200.78 47.1501 196.3 47.1501C194.94 47.1501 193.41 46.7301 191.71 45.8901C190.01 45.0501 188.48 43.8001 187.12 42.1501C184.94 43.7101 182.69 45.1201 180.37 46.3701C179.24 44.4801 178.06 42.7201 176.83 41.0901C179.28 39.7801 181.58 38.3801 183.75 36.8701C182.3 33.8801 181.12 30.3101 180.21 26.1701H163.33V29.8701H177.6L177.22 38.7701C177.11 40.4801 176.56 41.8601 175.56 42.9101C174.56 43.9601 173.07 44.5701 171.09 44.7201C169.11 44.8801 167.25 44.9301 165.51 44.9001C165.15 43.2301 164.64 41.3601 163.99 39.2901C166.13 39.4001 167.59 39.4501 168.37 39.4501C169.44 39.4501 170.15 39.2101 170.49 38.7301C170.84 38.2501 171.01 37.1101 171.01 35.3101H162.92C162.25 39.8901 160.71 43.9301 158.32 47.4501H200.8V60.9501H206.14V67.0501H152.28V60.9501L152.27 60.9601ZM164.63 60.9601H169.64V53.3401H164.63V60.9601ZM176.61 60.9601H181.62V53.3401H176.61V60.9601ZM195.27 26.1601H187.32C187.88 28.5001 188.57 30.5801 189.39 32.4001C191.55 30.4601 193.51 28.3801 195.27 26.1601ZM193.61 53.3401H188.6V60.9601H193.61V53.3401Z" fill="#231F20"/>
<path d="M232.38 15.1101L240.77 16.0901C240.41 17.9101 239.97 19.6801 239.46 21.4301H259.94V33.5201H252.21V28.4001H237.07C237 28.5801 236.92 28.7601 236.85 28.9501C237.94 34.3201 239.9 39.0601 242.73 43.1601C247.16 39.7801 250.72 36.9001 253.4 34.5001L259.01 41.1401C257.34 42.1901 253.38 44.6101 247.14 48.3801C251.13 52.2601 256.22 55.4001 262.39 57.8001C261.45 59.3301 259.76 61.9201 257.32 65.5901C245.38 59.6701 237.1 50.2501 232.49 37.3301C231.36 39.0701 230.17 40.8001 228.9 42.5001V58.5101C234.31 56.7301 238.21 55.4101 240.61 54.5301C240.39 58.2701 240.25 61.0601 240.17 62.9201C230.51 65.7501 224.41 67.7701 221.87 68.9601L218.55 62.1001C220.51 60.5001 221.49 57.8701 221.49 54.2001V50.6101C218.66 53.2201 215.57 55.7101 212.23 58.0701C210.96 55.4601 209.53 52.9101 207.93 50.4501C217.59 44.6001 224.45 37.2501 228.52 28.3901H219.04V36.1201H211.31V21.4201H231.02C231.6 19.3901 232.06 17.2801 232.38 15.1001V15.1101Z" fill="#231F20"/>
<path d="M291.87 71.0101C285.25 63.6201 281.93 55.0001 281.93 45.1401C281.93 35.2801 285.26 26.4801 291.92 19.3801H299.16C292.7 27.1301 289.47 35.7001 289.47 45.0801C289.47 54.4601 292.68 63.1401 299.11 71.0001H291.87V71.0101Z" fill="#231F20"/>
<path d="M307.8 29.8701C311.32 32.3401 314.55 34.8101 317.49 37.2801L312.37 42.9501C309.98 40.5901 306.87 37.9401 303.06 35.0001L307.8 29.8801V29.8701ZM310.2 45.2201C312.42 46.3101 314.79 47.2501 317.33 48.0501C314.75 56.0401 312.63 62.9501 310.96 68.8001C308.38 67.8201 305.91 66.9601 303.55 66.2401C305.69 60.6901 307.91 53.6801 310.19 45.2201H310.2ZM308.4 15.3801C311.85 17.5201 315.26 19.8501 318.64 22.3501L313.79 27.9101C311.07 25.5101 307.76 22.9501 303.88 20.2301L308.4 15.3801ZM356.27 48.9301H343.45C347.15 53.3101 351.84 56.5901 357.53 58.7901C356.19 60.9001 354.77 63.2401 353.28 65.8101C348.21 62.9101 344.04 59.0801 340.75 54.3201V68.8101H333.45V53.8901C330.09 58.5401 325.77 62.7301 320.49 66.4701C319.22 64.2501 317.84 62.0901 316.35 59.9901C321.63 57.0501 326.27 53.3701 330.26 48.9401H318.47V42.6201H333.45V35.4301H340.75V42.6201H356.27V48.9401V48.9301ZM335.68 31.5001C331.32 35.0201 327.24 38.0701 323.43 40.6501L318.96 35.5301C323.21 32.9901 327.17 30.1001 330.83 26.8701L335.68 31.5001ZM319.13 29.8701V17.9401H355.13V29.8701H348.11V24.2601H326.16V29.8701H319.13ZM338.73 31.5001L343.25 26.9301C347.83 30.0901 351.86 32.9901 355.34 35.6401L350.71 40.7601C346.75 37.4901 342.76 34.4101 338.73 31.5001Z" fill="#231F20"/>
<path d="M360.57 60.3602L358.88 52.3002C360.88 51.9002 362.87 51.4602 364.87 50.9902V34.3202H359.7V27.3502H364.87V15.7002H372.11V27.3502H377.45V34.3202H372.11V49.1902C373.81 48.6802 375.52 48.1702 377.23 47.6602C377.27 49.6202 377.36 51.9102 377.5 54.5202C378.81 51.0402 379.46 47.2002 379.46 43.0302V16.1302H386.7V43.6302C386.7 54.4102 383.78 62.9802 377.93 69.3302C375.43 67.2602 373.23 65.6502 371.34 64.4802C373.85 61.8302 375.77 58.8702 377.11 55.6002C371.41 57.2002 365.89 58.7802 360.55 60.3402L360.57 60.3602ZM391.72 18.1602H398.74V65.2702H391.72V18.1602ZM403.76 16.0902H411V68.4802H403.76V16.0902Z" fill="#231F20"/>
<path d="M424.26 71.0101H417.02C423.48 63.3101 426.71 54.7401 426.71 45.3001C426.71 35.8601 423.5 27.2801 417.07 19.3801H424.31C430.93 26.7301 434.25 35.3701 434.25 45.3001C434.25 55.2301 430.92 63.9601 424.26 71.0101Z" fill="#231F20"/>
<path d="M459.02 68.4802V17.2902H508.58V68.4302H500.79V66.5202H466.81V68.4802H459.02ZM500.79 23.9802H466.81V59.8102H500.79V23.9802ZM497.74 43.7002H493.68C495.19 45.0102 496.7 46.4002 498.23 47.8902L495.34 50.5002H499.04V56.8702H468.27V50.5002H479.38V43.6902H469.69V37.3202H479.38V33.4502H468.82V27.0802H498.5V33.4502H486.68V37.3202H497.73V43.6902L497.74 43.7002ZM488.21 46.4202L491.37 43.7002H486.69V50.5102H492.03C490.59 48.8702 489.33 47.5102 488.22 46.4302L488.21 46.4202Z" fill="#231F20"/>
<path d="M528.18 37.4902C531.3 41.0502 532.86 45.4402 532.86 50.6702C532.86 53.8802 532.04 56.1702 530.38 57.5302C528.72 58.8902 526.23 59.6202 522.89 59.7102C522.6 56.7302 522.13 54.0502 521.47 51.6502C522.2 51.7602 522.85 51.8102 523.43 51.8102C525.43 51.8102 526.42 50.9402 526.42 49.2002C526.42 45.6402 524.8 42.0102 521.57 38.3102C523.17 33.2302 524.53 28.4202 525.65 23.8802H521.29V69.0202H514.54V17.5602H532.73V22.7902C531.49 27.0402 529.97 31.9402 528.15 37.4902H528.18ZM537.55 42.6602L543.87 44.4602C541.96 50.5802 539.97 56.1102 537.91 61.0702C539.56 61.2502 541.21 61.3402 542.84 61.3402C544.98 61.3402 546.05 60.2502 546.05 58.0702V38.9002H533.36V31.8202H565.93V38.9002H553.46V61.0602C553.46 63.0602 553.06 64.6502 552.25 65.8402C551.44 67.0302 550.35 67.7802 548.96 68.1002C547.57 68.4202 544.37 68.5802 539.36 68.5802C538.92 65.8802 538.43 63.4002 537.89 61.1502L537.24 62.7002C535.1 61.6802 532.99 60.8102 530.92 60.0902C533.31 55.1902 535.53 49.3802 537.56 42.6602H537.55ZM535.59 18.2102H563.91V25.2902H535.59V18.2102ZM560.8 42.8302C562.8 47.7002 564.94 53.4502 567.22 60.0902L560.69 62.6002C558.66 56.2102 556.59 50.3802 554.48 45.1202L560.8 42.8302Z" fill="#231F20"/>
<path d="M592.12 49.5802H599.96C599.67 51.7902 599.18 53.7902 598.49 55.5702C604.48 57.1702 612.01 59.3502 621.09 62.1102L617.39 69.1302C612.56 67.2802 605.08 64.7202 594.95 61.4502C591.1 65.6302 583.53 68.2002 572.24 69.1802C571.33 67.1102 570.1 64.6202 568.54 61.7202C576.64 61.2502 582.53 60.1402 586.24 58.4002C589.76 56.7302 591.72 53.7902 592.12 49.5802ZM571.86 18.2702C578.18 17.7602 584.64 16.6902 591.25 15.0602L593.32 20.7802C587.84 22.1902 583.03 23.2102 578.89 23.8302V31.9402C581.07 31.4702 583.47 30.9802 586.08 30.4702C585.39 29.0902 584.66 27.6802 583.9 26.2202L589.35 23.3302C591.45 27.1402 593.23 30.4602 594.69 33.2902C597.59 30.9702 599.07 27.7902 599.1 23.7602H594.74V17.8202H619.63C619.56 21.0102 619.39 24.9002 619.14 29.4702C618.81 35.6102 616.18 38.6902 611.24 38.7302C608.44 38.7702 606.63 38.7702 605.79 38.7302C605.57 37.3502 605.21 35.0102 604.7 31.7102C606.63 31.8602 608.29 31.9502 609.71 31.9802C611.34 31.9802 612.21 30.8602 612.32 28.6002C612.47 26.7802 612.54 25.1702 612.54 23.7502H605.95C605.95 30.1702 603.17 35.6202 597.62 40.0902C596.6 39.0702 595.48 38.0202 594.24 36.9302L590.21 39.0502C589.77 38.1402 589.34 37.2202 588.9 36.2702C580.11 37.7202 574.78 39.2102 572.89 40.7402L569.79 34.9702C571.02 34.0302 571.71 32.9502 571.86 31.7602V18.2502V18.2702ZM574.91 57.4202V41.4602H616.19V56.8202H608.57V48.0002H582.54V57.4202H574.92H574.91Z" fill="#231F20"/>
<path d="M630.24 16.9001H672.5V40.5401H644.32C643.65 41.5401 642.94 42.5001 642.19 43.4301H675.76L674.81 58.4901C674.59 61.5201 673.92 63.8001 672.78 65.3401C671.65 66.8701 670.47 67.7802 669.26 68.0602C668.04 68.3402 664.62 68.4801 658.99 68.4801C658.5 66.1901 657.85 63.7601 657.03 61.1801C654.31 64.2501 651.09 66.9001 647.39 69.1301C645.61 67.7501 643.43 66.2401 640.85 64.6101C648.44 60.4901 653.54 55.4801 656.15 49.5801H650.79C646.61 57.0001 639.4 62.9201 629.14 67.3301C627.83 65.7701 626.05 63.9401 623.8 61.8301C632.49 58.4701 638.51 54.3901 641.85 49.5801H636.43C634.25 51.5601 631.89 53.3701 629.35 55.0301C628.11 53.7201 626.34 52.0201 624.01 49.9101C628.64 47.5701 632.57 44.4501 635.8 40.5401H630.22V16.9001H630.24ZM664.93 22.9501H637.81V26.1601H664.93V22.9501ZM664.93 34.5001V31.2901H637.81V34.5001H664.93ZM657.33 60.8501C659.26 61.0901 661.1 61.2001 662.86 61.2001C664.11 61.2001 664.96 61.0901 665.42 60.8601C665.88 60.6301 666.26 60.2401 666.58 59.6901C666.9 59.1401 667.17 57.7701 667.38 55.6101C667.6 53.4401 667.74 51.4301 667.82 49.5801H664.2C662.46 53.8101 660.17 57.5701 657.34 60.8501H657.33Z" fill="#231F20"/>
<path d="M29.7272 67.2597L8.74022 46.2728C9.81814 42.026 11.7922 38.1429 14.4545 34.8312L8.90906 29.2858C4.24673 34.8182 1.15579 41.7143 0.272676 49.2727L5.97398 54.974L28.6492 77.6493V86.987L18.4155 76.7532C14.1427 73.1039 10.909 68.2987 9.19473 62.8052L0 53.6104C0 53.6753 0 53.7403 0 53.8052C0 65.3896 5.18185 75.7532 13.3507 82.7272L28.6492 98.0259L36.3376 105.714V55.8961L29.7402 49.2987V67.2597H29.7272Z" fill="url(#paint0_linear_2369_255)"/>
<path d="M40.7268 50.1947L61.1683 29.7532L64.454 26.4545L49.3502 11.3636L43.8307 16.8831L27.8956 32.8311L22.0515 26.987L37.9995 11.0389L43.519 5.51947L37.9995 0L16.532 21.4675L12.1294 25.8571L17.6619 31.3766L28.61 42.3246L30.7397 40.2077L48.9475 21.987L53.8176 26.8701L37.8825 42.8181L33.4801 47.2077L38.5969 52.3246L40.7268 50.1947Z" fill="url(#paint1_linear_2369_255)"/>
<path d="M69.1167 31.9088L69.0777 31.6231L67.2077 29.7529L39.9868 56.9737V105.389L47.6752 97.7009V59.0256L65.4803 41.2204C67.2205 45.0516 68.1947 49.2983 68.1947 53.7789C68.1947 62.9736 64.0777 71.2074 57.5843 76.7528L51.2336 83.1035V94.1424L62.6492 82.7269C70.818 75.7529 75.9999 65.3892 75.9999 53.8048C75.9999 45.662 73.4544 38.1036 69.1167 31.9088Z" fill="url(#paint2_linear_2369_255)"/>
<defs>
<linearGradient id="paint0_linear_2369_255" x1="19.4805" y1="17.3637" x2="17.2597" y2="121.766" gradientUnits="userSpaceOnUse">
<stop offset="0.11" stop-color="#749B3E"/>
<stop offset="1" stop-color="#006838"/>
</linearGradient>
<linearGradient id="paint1_linear_2369_255" x1="39.2982" y1="58.0778" x2="37.8177" y2="11.1818" gradientUnits="userSpaceOnUse">
<stop offset="0.11" stop-color="#6F000A"/>
<stop offset="1" stop-color="#ED1C24"/>
</linearGradient>
<linearGradient id="paint2_linear_2369_255" x1="53.792" y1="89.0126" x2="60.2076" y2="39.649" gradientUnits="userSpaceOnUse">
<stop offset="0.11" stop-color="#27AAE1"/>
<stop offset="1" stop-color="#2E3192"/>
</linearGradient>
</defs>
</svg>
