<svg xmlns="http://www.w3.org/2000/svg" width="59" height="59" viewBox="0 0 59 59" fill="none">
  <g clip-path="url(#clip0_2026_1135)">
    <path d="M7.45995 51.54L11.5006 42.2342C8.40929 37.8459 7.02568 32.4803 7.60944 27.1443C8.1932 21.8084 10.7042 16.8688 14.6712 13.2528C18.6383 9.63666 23.7886 7.59259 29.1557 7.50415C34.5228 7.41571 39.7376 9.28898 43.8217 12.7724C47.9057 16.2558 50.5781 21.1099 51.3373 26.4238C52.0966 31.7376 50.8905 37.1459 47.9454 41.6337C45.0003 46.1214 40.5187 49.3801 35.3416 50.7983C30.1645 52.2164 24.6479 51.6965 19.8269 49.336L7.45995 51.54Z" stroke="#F8F9F4" stroke-width="4.8978" stroke-linecap="round" stroke-linejoin="round"/>
    <path d="M22.1534 24.6022C22.1534 24.927 22.2824 25.2384 22.512 25.4681C22.7416 25.6977 23.0531 25.8267 23.3778 25.8267C23.7025 25.8267 24.014 25.6977 24.2436 25.4681C24.4732 25.2384 24.6023 24.927 24.6023 24.6022V22.1533C24.6023 21.8286 24.4732 21.5172 24.2436 21.2875C24.014 21.0579 23.7025 20.9289 23.3778 20.9289C23.0531 20.9289 22.7416 21.0579 22.512 21.2875C22.2824 21.5172 22.1534 21.8286 22.1534 22.1533V24.6022ZM22.1534 24.6022C22.1534 27.8497 23.4434 30.9641 25.7397 33.2604C28.036 35.5567 31.1504 36.8467 34.3978 36.8467M34.3978 36.8467H36.8467C37.1715 36.8467 37.4829 36.7177 37.7126 36.4881C37.9422 36.2585 38.0712 35.947 38.0712 35.6223C38.0712 35.2975 37.9422 34.9861 37.7126 34.7565C37.4829 34.5268 37.1715 34.3978 36.8467 34.3978H34.3978C34.0731 34.3978 33.7617 34.5268 33.532 34.7565C33.3024 34.9861 33.1734 35.2975 33.1734 35.6223C33.1734 35.947 33.3024 36.2585 33.532 36.4881C33.7617 36.7177 34.0731 36.8467 34.3978 36.8467Z" stroke="#F8F9F4" stroke-width="4.8978" stroke-linecap="round" stroke-linejoin="round"/>
  </g>
  <defs>
    <clipPath id="clip0_2026_1135">
      <rect width="58.7736" height="58.7736" fill="white" transform="translate(0.113205 0.11322)"/>
    </clipPath>
  </defs>
</svg>