<svg xmlns="http://www.w3.org/2000/svg" width="36" height="35" viewBox="0 0 36 35" fill="none">
  <g clip-path="url(#clip0_2061_3054)">
    <path d="M26.6278 4.41861C27.5746 4.41861 28.512 4.60508 29.3867 4.96739C30.2614 5.32969 31.0561 5.86072 31.7256 6.53017C32.395 7.19961 32.9261 7.99436 33.2884 8.86903C33.6507 9.7437 33.8371 10.6812 33.8371 11.6279V23.1628C33.8371 24.1095 33.6507 25.047 33.2884 25.9217C32.9261 26.7964 32.395 27.5911 31.7256 28.2605C31.0561 28.93 30.2614 29.461 29.3867 29.8233C28.512 30.1856 27.5746 30.3721 26.6278 30.3721H9.32551C8.37877 30.3721 7.44131 30.1856 6.56663 29.8233C5.69196 29.461 4.89721 28.93 4.22777 28.2605C2.87576 26.9085 2.11621 25.0748 2.11621 23.1628V11.6279C2.11621 9.71589 2.87576 7.88217 4.22777 6.53017C5.57977 5.17816 7.41349 4.41861 9.32551 4.41861H26.6278ZM13.6511 13.0698V21.7209C13.6513 21.9759 13.7191 22.2263 13.8476 22.4465C13.9762 22.6668 14.1608 22.849 14.3827 22.9746C14.6046 23.1002 14.8558 23.1647 15.1108 23.1615C15.3658 23.1584 15.6153 23.0877 15.8341 22.9566L23.0434 18.631C23.2566 18.5028 23.4329 18.3217 23.5554 18.1052C23.6779 17.8886 23.7422 17.6441 23.7422 17.3954C23.7422 17.1466 23.6779 16.9021 23.5554 16.6856C23.4329 16.469 23.2566 16.2879 23.0434 16.1597L15.8341 11.8341C15.6153 11.703 15.3658 11.6323 15.1108 11.6292C14.8558 11.626 14.6046 11.6905 14.3827 11.8161C14.1608 11.9417 13.9762 12.1239 13.8476 12.3442C13.7191 12.5644 13.6513 12.8148 13.6511 13.0698Z" fill="white"/>
  </g>
  <defs>
    <clipPath id="clip0_2061_3054">
      <rect width="34.6047" height="34.6047" fill="white" transform="translate(0.673828 0.0930176)"/>
    </clipPath>
  </defs>
</svg>